<svg id="icons" xmlns="http://www.w3.org/2000/svg" viewBox="0 0 214 206.99"><defs><style>.cls-1{fill:#fcc02e;}.cls-2{fill:#005096;}.cls-3{fill:#00b6aa;}</style></defs><path class="cls-1" d="M199.09,97.24a1.73,1.73,0,0,0-.31-.22,14.44,14.44,0,0,0-1.3-.66,28.67,28.67,0,0,0-10.2-51.25A28.71,28.71,0,0,0,160.17,17.7a29.21,29.21,0,0,0-1.4-2.93l0,0a.18.18,0,0,0-.05-.07A28.67,28.67,0,0,0,107,18.18a28.67,28.67,0,0,0-53.17-.48A28.72,28.72,0,0,0,26.72,45.11,28.67,28.67,0,0,0,16.57,96.39l-.05,0-.17.07-.08,0a28.68,28.68,0,0,0,7.55,54.12A28.68,28.68,0,0,0,51.9,185.2a2.15,2.15,0,0,0,.67-.12C55.65,198.1,67.64,207,83.33,207a33.63,33.63,0,0,0,24.58-10.45A33.07,33.07,0,0,0,131.68,207a30.6,30.6,0,0,0,26.42-15.08,9.82,9.82,0,0,0,1.35-2.56,29.66,29.66,0,0,0,1.59-4.19c16-.77,29.75-13.83,29.75-28.64a28.83,28.83,0,0,0-.61-5.88,28.66,28.66,0,0,0,8.91-53.4Zm-13.77,49.82a24.66,24.66,0,0,1-12.34-3.3,2,2,0,1,0-2,3.46,28.69,28.69,0,0,0,14.35,3.84l.85,0a25.09,25.09,0,0,1,.62,5.48c0,12.92-13,24.68-27.26,24.68l-.15,0-.2,0-.21,0h0a11.26,11.26,0,0,0-4.47-5,2,2,0,0,0-2,3.46,7.39,7.39,0,0,1,3.41,4.9,6.44,6.44,0,0,1-.13,3.19,26.59,26.59,0,0,1-24,15.14,28.77,28.77,0,0,1-21.77-10.25V153.67a2,2,0,0,0-4,0v39.07C100.81,199.07,92.24,203,83.33,203c-16.22,0-27.54-10.14-27.54-24.67a.5.5,0,0,0,0-.12.66.66,0,0,0,0-.14c-.39-3,.17-5.61,1.54-7.18a5.86,5.86,0,0,1,4.62-1.81,2,2,0,1,0,0-4,11.44,11.44,0,0,0-3.27.45,12.58,12.58,0,0,0-1.37-4,9.19,9.19,0,0,0-6-4.9,2,2,0,0,0-.78,3.93c2.56.51,4.49,4.39,4.3,7.17-.17.16-.34.32-.49.49-2.14,2.44-3,6-2.52,10.19,0,.94.05,1.86.14,2.77h0a24.71,24.71,0,0,1-24.69-24.68,25.09,25.09,0,0,1,.62-5.48l.85,0a28.49,28.49,0,0,0,10.62-2,2,2,0,0,0-1.48-3.72A24.69,24.69,0,0,1,4,122.38a24.86,24.86,0,0,1,14.13-22.31,7.28,7.28,0,0,1,7.34,1,5.28,5.28,0,0,1,2.19,5.17,2,2,0,0,0,1.6,2.33,1.47,1.47,0,0,0,.36,0,2,2,0,0,0,2-1.64,9.28,9.28,0,0,0-3.66-9.06,11.3,11.3,0,0,0-5.24-2.26A2.07,2.07,0,0,0,22,95a24.69,24.69,0,0,1,6.28-46.15c.87-.15,14.58-2.25,20.36,13a2,2,0,0,0,1.87,1.29,2,2,0,0,0,1.87-2.71,27.59,27.59,0,0,0-3.69-6.83.34.34,0,0,0,0-.1,8.58,8.58,0,0,1,7-9.86A2,2,0,1,0,55,39.69a12.57,12.57,0,0,0-10.21,9.87,22.85,22.85,0,0,0-14-4.84A24.71,24.71,0,0,1,55.37,21.66a2,2,0,0,0,2-2,0,0,0,0,0,0,0A24.68,24.68,0,0,1,105,28.68a3.47,3.47,0,0,1-1,2.68,1.57,1.57,0,0,1-1.33.37,2,2,0,1,0-.65,3.94,5.15,5.15,0,0,0,1,.08,5.52,5.52,0,0,0,3.62-1.34,6.65,6.65,0,0,0,.65-.65,12.62,12.62,0,0,0,4.1,5.23,8.94,8.94,0,0,0,5.15,1.58,13,13,0,0,0,5-1.12A2,2,0,0,0,120,35.76c-2.61,1.11-4.68,1.09-6.34-.06-3.19-2.2-4.4-8.18-4.33-10.86a24.69,24.69,0,0,1,46-8.15,4.19,4.19,0,0,1,.09,4.32,4.88,4.88,0,0,1-4,2.36,2,2,0,0,0,0,4,8.91,8.91,0,0,0,7.4-4.32,8.05,8.05,0,0,0,.63-1.37A24.67,24.67,0,0,1,178.48,61a2,2,0,0,0,3.22,2.38,28.39,28.39,0,0,0,5.46-14.2,24.67,24.67,0,0,1,5,45.74,16.09,16.09,0,0,0-4.93.31,8.63,8.63,0,0,0-.13-1.81c-.59-3.17-3-6.54-6.33-6.54a2,2,0,0,0,0,4c.82,0,2,1.43,2.4,3.28a3.4,3.4,0,0,1-.55,2.84c-.46.26-.89.54-1.32.84a.6.6,0,0,0-.13.09A16.22,16.22,0,0,0,176.6,103a2,2,0,1,0,3.47,2,12.11,12.11,0,0,1,3.36-3.75,6.38,6.38,0,0,0,1.54-1,12,12,0,0,1,2.52-1,12.2,12.2,0,0,1,7,.19,24.68,24.68,0,0,1-9.18,47.59Z"/><path class="cls-2" d="M116.82,65.19H54a2,2,0,0,0-2,2v52.12a2,2,0,0,0,2,2H65.2V130a2,2,0,0,0,2,2,2.06,2.06,0,0,0,1.11-.34l15.42-10.34H91a2,2,0,1,0,0-4H83.12a2,2,0,0,0-1.11.34L69.2,126.24v-6.93a2,2,0,0,0-2-2H56V69.19h58.79V93.3a2,2,0,1,0,4,0V67.19A2,2,0,0,0,116.82,65.19Z"/><path class="cls-2" d="M102.92,89.78H68.21a2,2,0,0,0,0,4h34.71a2,2,0,0,0,0-4Z"/><path class="cls-3" d="M145.69,165.59a2.07,2.07,0,0,0,1.12.34,2,2,0,0,0,2-2v-8.68H160a2,2,0,0,0,2-2V101.13a2,2,0,0,0-2-2H97.18a2,2,0,0,0-2,2v52.12a2,2,0,0,0,2,2h33.09ZM99.18,103.13H158v48.12H146.81a2,2,0,0,0-2,2v6.93L132,151.59a2,2,0,0,0-1.11-.34H99.18Z"/><circle class="cls-3" cx="114.25" cy="128.11" r="4.96"/><circle class="cls-3" cx="128.58" cy="128.11" r="4.96"/><circle class="cls-3" cx="142.9" cy="128.11" r="4.96"/></svg>