<svg xmlns="http://www.w3.org/2000/svg" viewBox="0 0 48 48"><defs><style>.cls-1{fill:#fc6;}.cls-2{fill:#ffde76;}.cls-3{fill:#dad7e5;}.cls-4{fill:#edebf2;}.cls-5{fill:#f6ccaf;}.cls-6{fill:#374f68;}.cls-7{fill:#425b72;}.cls-8{fill:#ffdec7;}</style></defs><title>Creativity</title><g id="Creativity"><path class="cls-1" d="M35,18c0,7-4.8,6.64-6,15-11.11,0-10,.09-10-.21-.93-7.58-6.69-8.42-5.91-16A11,11,0,0,1,17.28,9.3h0A11,11,0,0,1,35,18Z"/><path class="cls-2" d="M35,18c0,6.43-4.05,6.73-5.63,13a12.52,12.52,0,0,1-11-6.62c-1-1.93-3.88-4.37-3.34-9.56a11,11,0,0,1,2.23-5.53A11,11,0,0,1,35,18Z"/><rect class="cls-3" x="18" y="33" width="12" height="4"/><path class="cls-4" d="M30,33v3H23a3,3,0,0,1-3-3Z"/><path class="cls-5" d="M29,37l-2.7,5.39a7,7,0,0,0-4.6,0L19,37Z"/><path class="cls-6" d="M26.3,42.39,24,47l-2.3-4.61A7,7,0,0,1,26.3,42.39Z"/><path class="cls-5" d="M29,37l-2.7,5.39a7,7,0,0,0-4.6,0L19,37Z"/><path class="cls-6" d="M26.3,42.39,24,47l-2.3-4.61A7,7,0,0,1,26.3,42.39Z"/><path class="cls-7" d="M26.3,42.39,25,45l-1.49-3A6.86,6.86,0,0,1,26.3,42.39Z"/><path class="cls-8" d="M28,39l-1.7,3.39A6.82,6.82,0,0,0,23.51,42L22,39Z"/><path d="M25,3V1a1,1,0,0,0-2,0V3A1,1,0,0,0,25,3Z"/><path d="M13.39,8.39a1,1,0,0,0,.71-1.7L12.69,5.27a1,1,0,0,0-1.42,1.42C12.81,8.22,12.87,8.39,13.39,8.39Z"/><path d="M35.31,5.27,33.9,6.69A1,1,0,0,0,35.31,8.1l1.42-1.41A1,1,0,0,0,35.31,5.27Z"/><path d="M41,17H39a1,1,0,0,0,0,2h2A1,1,0,0,0,41,17Z"/><path d="M9,17H7a1,1,0,0,0,0,2H9A1,1,0,0,0,9,17Z"/><path d="M32,9.06a12,12,0,0,0-19.93,7.66c-.81,7.75,4.43,8.6,5.77,15.31A1,1,0,0,0,17,33v4a1,1,0,0,0,1,1h.38c5.2,10.4,4.78,10,5.62,10s.62,0,5.62-10H30a1,1,0,0,0,1-1V33a1,1,0,0,0-.84-1C31.42,25.5,36,25,36,18A12,12,0,0,0,32,9.06ZM29,34v2H19V34Zm-5.85,9.06a6.05,6.05,0,0,1,1.7,0L24,44.76Zm2.62-1.83a7.84,7.84,0,0,0-3.54,0L20.62,38h6.76Zm5.89-16.82A15.89,15.89,0,0,0,28.13,32H25.35c3.88-12.58,3.88-12,3.45-12.59S28.73,19,20,19a1,1,0,0,0-1,1.29L22.65,32H19.87c-1.27-7.34-6.52-8.26-5.81-15.07a10,10,0,1,1,17.6,7.48ZM24,29.6,21.35,21h5.3Z"/></g></svg>