<?xml version="1.0" encoding="utf-8"?>
<!-- Generator: Adobe Illustrator 24.0.0, SVG Export Plug-In . SVG Version: 6.00 Build 0)  -->
<svg version="1.1" id="Layer_1" xmlns="http://www.w3.org/2000/svg" xmlns:xlink="http://www.w3.org/1999/xlink" x="0px" y="0px"
	 viewBox="0 0 256 256" style="enable-background:new 0 0 256 256;" xml:space="preserve">
<style type="text/css">
	.st0{fill:#382B73;}
	.st1{fill:#291B4A;}
	.st2{fill:#ED9ABC;}
	.st3{fill:#E54890;}
	.st4{fill:#D3D3D3;}
	.st5{fill:#EBE7F2;}
	.st6{fill:#F9B087;}
	.st7{fill:#FF8639;}
	.st8{fill:#65C1D6;}
	.st9{fill:#149CB2;}
</style>
<g>
	<g>
		<g>
			<g>
				<g>
					<circle class="st0" cx="128" cy="128" r="119.4"/>
				</g>
			</g>
		</g>
	</g>
	<g>
		<g>
			<g>
				<g>
					<path class="st1" d="M90.038,125.283c-0.338-1.34-1.696-2.15-3.036-1.812c-2.185,0.552-4.249,1.489-6.108,2.748
						c-1.302-2.619-3.354-4.788-5.966-6.24c-1.206-0.671-2.729-0.237-3.399,0.969c-0.671,1.207-0.237,2.729,0.97,3.4
						c2.244,1.249,3.867,3.295,4.571,5.765s0.404,5.064-0.844,7.309c-0.671,1.207-0.237,2.729,0.97,3.4
						c0.385,0.214,0.802,0.316,1.213,0.316c0.878,0,1.729-0.463,2.187-1.285c1.458-2.622,2.056-5.559,1.773-8.482
						c1.691-1.456,3.697-2.505,5.859-3.051C89.565,127.981,90.376,126.622,90.038,125.283z"/>
				</g>
			</g>
		</g>
		<g>
			<g>
				<g>
					<path class="st1" d="M44.339,167.572c-0.15,1.076-0.227,2.158-0.227,3.229c0,11.183,8.162,20.907,19.094,22.894
						c0.074,0.057,0.148,0.114,0.223,0.171c3.117,6.598,9.749,10.824,17.087,10.824c0.713,0,1.428-0.041,2.137-0.121
						c3.89,4.758,9.729,7.556,15.918,7.556c10.182,0,20.555-9.353,20.555-18.532v-26.129c0-1.381-1.119-2.5-2.5-2.5
						c-0.826,0-1.553,0.406-2.008,1.023c-4.852,1.347-10.042,0.088-13.739-3.395c-2.473-2.327-4.048-5.464-4.437-8.832
						c-0.158-1.372-1.395-2.352-2.771-2.197c-1.371,0.158-2.354,1.398-2.196,2.77c0.523,4.538,2.646,8.764,5.976,11.899
						c3.669,3.455,8.429,5.288,13.292,5.288c1.126,0,2.258-0.105,3.383-0.304v22.376c0,6.45-8.141,13.532-15.555,13.532
						c-5.085,0-9.86-2.498-12.773-6.683c-0.568-0.816-1.562-1.224-2.543-1.023c-0.898,0.18-1.82,0.271-2.738,0.271
						c-5.405,0-10.282-3.124-12.57-7.99c0.421-2.133,1.307-4.171,2.63-5.918c0.38-0.502,0.801-0.966,1.239-1.41
						c1.775,3.063,4.357,5.614,7.495,7.326c2.944,1.605,6.124,2.366,9.262,2.366c5.595,0,11.054-2.421,14.792-6.796
						c0.027,0.121,0.063,0.239,0.085,0.361c0.223,1.204,1.273,2.046,2.455,2.046c0.151,0,0.304-0.014,0.458-0.042
						c1.357-0.251,2.254-1.556,2.003-2.913c-0.71-3.838-2.872-7.17-6.087-9.382c-3.216-2.212-7.103-3.039-10.939-2.33
						c-1.357,0.251-2.254,1.556-2.003,2.913c0.251,1.358,1.552,2.251,2.913,2.004c2.521-0.467,5.079,0.077,7.195,1.532
						c0.449,0.309,0.86,0.658,1.245,1.03c-4.056,6.26-12.334,8.448-18.984,4.821c-2.467-1.345-4.47-3.389-5.788-5.843
						c0.946-0.447,1.936-0.804,2.968-1.036c1.347-0.304,2.192-1.642,1.889-2.989c-0.304-1.346-1.634-2.191-2.988-1.889
						c-4.456,1.005-8.432,3.566-11.193,7.211c-1.347,1.777-2.368,3.777-3.036,5.888c-8.303-1.778-14.444-9.258-14.444-17.849
						c0-0.35,0.03-0.704,0.051-1.056c0.956,0.144,1.913,0.215,2.865,0.215c6.376,0,12.477-3.174,16.114-8.543
						c2.129,1.709,4.753,2.851,7.667,3.142c0.085,0.008,0.169,0.012,0.252,0.012c1.269,0,2.355-0.962,2.484-2.251
						c0.138-1.374-0.864-2.599-2.238-2.737c-5.274-0.527-9.136-5.248-8.608-10.521c0.138-1.374-0.864-2.599-2.238-2.737
						c-1.387-0.137-2.599,0.865-2.736,2.239c-0.322,3.219,0.445,6.293,1.981,8.883c-3.17,5.802-9.962,8.728-16.356,7.013
						c-4.108-3.678-6.468-8.919-6.468-14.427c0-3.394,0.876-6.68,2.542-9.594c0.466,0.033,0.931,0.051,1.395,0.051
						c4.789,0,9.418-1.766,13.022-5.036c1.022-0.928,1.1-2.509,0.172-3.531c-0.928-1.023-2.51-1.1-3.531-0.172
						c-2.968,2.691-6.869,3.988-10.835,3.67c-1.806-3.004-2.765-6.421-2.765-9.958c0-5.016,1.915-9.776,5.393-13.402
						c0.637-0.664,0.857-1.624,0.574-2.5c-0.625-1.932-0.941-3.94-0.941-5.97c0-7.801,4.69-14.8,11.794-17.82
						c3.365,2.887,5.225,7.14,5.013,11.615c-0.144,3.044-1.259,5.958-3.151,8.322c-3.311,0.042-6.497,1.188-9.094,3.326
						c-1.065,0.878-1.218,2.454-0.34,3.519c0.878,1.067,2.454,1.218,3.52,0.34c1.981-1.632,4.472-2.394,7.036-2.149
						c2.556,0.247,4.862,1.474,6.494,3.456c0.494,0.6,1.21,0.911,1.931,0.911c0.56,0,1.123-0.187,1.589-0.57
						c1.065-0.878,1.218-2.454,0.34-3.519c-1.639-1.99-3.731-3.466-6.078-4.356c1.631-2.728,2.597-5.831,2.748-9.043
						c0.287-6.041-2.23-11.781-6.78-15.668c2.362-8.073,9.818-13.803,18.331-13.917c0.324,2.1,0.974,4.099,1.919,5.933
						c2.16,4.604,0.355,10.157-4.185,12.567c-1.22,0.647-1.684,2.161-1.036,3.38c0.449,0.846,1.314,1.329,2.21,1.329
						c0.396,0,0.797-0.094,1.17-0.292c4.114-2.183,6.745-6.068,7.514-10.33c1.178,0.87,2.461,1.623,3.848,2.226
						c0.324,0.141,0.662,0.208,0.995,0.208c0.965,0,1.885-0.563,2.294-1.504c0.55-1.266-0.03-2.739-1.297-3.289
						c-3.155-1.371-5.63-3.748-7.116-6.679c-0.064-0.129-0.114-0.261-0.182-0.389c0-0.001-0.001-0.002-0.002-0.003
						c-0.73-1.555-1.185-3.255-1.323-5.038c2.365-5.647,7.785-9.279,13.935-9.279c7.413,0,13.84,5.517,14.949,12.833
						c0.008,0.053,0.018,0.105,0.029,0.158c0.095,0.438,0.144,0.875,0.144,1.301v16.811c-0.434-0.089-0.87-0.167-1.309-0.227
						c-5.142-0.695-10.241,0.651-14.366,3.791c-4.127,3.141-6.782,7.701-7.479,12.84c-0.186,1.368,0.773,2.627,2.142,2.813
						c0.114,0.015,0.228,0.023,0.339,0.023c1.231,0,2.305-0.911,2.475-2.165c0.517-3.815,2.488-7.2,5.552-9.532
						c3.064-2.333,6.853-3.331,10.666-2.815c0.592,0.081,1.182,0.198,1.754,0.348c0.076,0.02,0.151,0.023,0.227,0.036v1.337
						c0,1.381,1.119,2.5,2.5,2.5s2.5-1.119,2.5-2.5v-23.26c0-0.756-0.081-1.525-0.241-2.286
						c-1.51-9.701-10.043-17.005-19.881-17.005c-7.746,0-14.633,4.321-18.015,11.155c-0.159-0.003-0.316-0.005-0.473-0.005
						c-11.025,0-20.709,7.506-23.539,18.039c-9.07,3.743-15.07,12.626-15.07,22.527c0,2.063,0.26,4.107,0.774,6.098
						c-3.751,4.406-5.8,9.952-5.8,15.774c0,4.351,1.144,8.564,3.32,12.285c-2.177,3.72-3.32,7.934-3.32,12.285
						C36.881,156.66,39.585,162.987,44.339,167.572z"/>
				</g>
			</g>
		</g>
		<g>
			<g>
				<g>
					<path class="st1" d="M183.502,124.348c1.207-0.671,1.641-2.193,0.97-3.4c-0.671-1.206-2.193-1.641-3.399-0.969
						c-2.612,1.452-4.664,3.621-5.966,6.24c-1.858-1.259-3.922-2.196-6.108-2.748c-1.338-0.335-2.697,0.473-3.036,1.812
						c-0.338,1.338,0.473,2.698,1.812,3.036c2.162,0.546,4.167,1.594,5.859,3.051c-0.283,2.923,0.315,5.861,1.773,8.482
						c0.457,0.822,1.309,1.285,2.187,1.285c0.411,0,0.828-0.102,1.213-0.316c1.207-0.671,1.641-2.193,0.97-3.4
						c-1.248-2.244-1.548-4.839-0.844-7.309S181.258,125.596,183.502,124.348z"/>
				</g>
			</g>
		</g>
		<g>
			<g>
				<g>
					<path class="st1" d="M145.258,171.521c4.863,0,9.623-1.833,13.292-5.288c3.33-3.135,5.452-7.361,5.976-11.899
						c0.158-1.372-0.825-2.612-2.196-2.77c-1.38-0.157-2.613,0.825-2.771,2.197c-0.389,3.368-1.964,6.504-4.437,8.832
						c-3.698,3.482-8.888,4.744-13.739,3.395c-0.455-0.618-1.182-1.024-2.008-1.024c-1.381,0-2.5,1.119-2.5,2.5v26.129
						c0,9.179,10.373,18.532,20.555,18.532c6.188,0,12.028-2.798,15.918-7.556c0.709,0.081,1.424,0.121,2.137,0.121
						c7.338,0,13.97-4.226,17.087-10.824c0.074-0.057,0.148-0.114,0.223-0.171c10.932-1.987,19.094-11.711,19.094-22.894
						c0-1.071-0.076-2.153-0.227-3.229c4.754-4.585,7.458-10.912,7.458-17.54c0-4.351-1.144-8.565-3.32-12.285
						c2.177-3.72,3.32-7.934,3.32-12.285c0-5.822-2.049-11.368-5.8-15.774c0.515-1.991,0.774-4.036,0.774-6.098
						c0-9.901-6-18.785-15.07-22.527c-2.83-10.532-12.514-18.039-23.539-18.039c-0.156,0-0.313,0.001-0.473,0.005
						c-3.382-6.833-10.269-11.155-18.015-11.155c-9.838,0-18.371,7.305-19.881,17.005c-0.16,0.761-0.241,1.529-0.241,2.286v23.26
						c0,1.381,1.119,2.5,2.5,2.5s2.5-1.119,2.5-2.5v-1.338c0.076-0.013,0.151-0.016,0.227-0.036c0.572-0.15,1.162-0.268,1.754-0.348
						c3.813-0.519,7.603,0.482,10.666,2.814s5.035,5.717,5.552,9.532c0.17,1.254,1.243,2.165,2.475,2.165
						c0.111,0,0.225-0.008,0.339-0.023c1.368-0.186,2.327-1.445,2.142-2.813c-0.696-5.139-3.352-9.699-7.479-12.84
						c-4.125-3.141-9.228-4.489-14.366-3.791c-0.438,0.059-0.875,0.137-1.309,0.226V71.166c0-0.426,0.049-0.863,0.144-1.301
						c0.012-0.052,0.021-0.105,0.029-0.158c1.109-7.316,7.536-12.833,14.949-12.833c6.151,0,11.571,3.632,13.936,9.279
						c-0.138,1.783-0.593,3.483-1.323,5.038c0,0.001-0.001,0.002-0.002,0.003c-0.068,0.128-0.118,0.26-0.182,0.389
						c-1.486,2.931-3.961,5.308-7.116,6.679c-1.267,0.55-1.847,2.023-1.297,3.289c0.409,0.942,1.329,1.504,2.294,1.504
						c0.333,0,0.671-0.066,0.995-0.208c1.387-0.603,2.671-1.356,3.848-2.226c0.769,4.262,3.401,8.147,7.514,10.33
						c0.373,0.198,0.774,0.292,1.17,0.292c0.896,0,1.761-0.482,2.21-1.329c0.647-1.219,0.184-2.733-1.036-3.38
						c-4.54-2.409-6.346-7.963-4.185-12.567c0.945-1.834,1.595-3.833,1.919-5.933c8.513,0.114,15.969,5.845,18.331,13.917
						c-4.55,3.887-7.067,9.627-6.78,15.667c0.151,3.213,1.116,6.316,2.748,9.044c-2.347,0.89-4.439,2.366-6.078,4.356
						c-0.878,1.065-0.726,2.641,0.34,3.519c0.466,0.383,1.029,0.57,1.589,0.57c0.721,0,1.437-0.311,1.931-0.911
						c1.632-1.981,3.938-3.209,6.494-3.456c2.558-0.244,5.055,0.516,7.036,2.149c1.065,0.877,2.642,0.726,3.52-0.34
						c0.878-1.065,0.726-2.641-0.34-3.519c-2.597-2.139-5.781-3.285-9.094-3.327c-1.893-2.364-3.008-5.278-3.151-8.322
						c-0.212-4.475,1.648-8.727,5.013-11.615c7.104,3.02,11.794,10.019,11.794,17.82c0,2.03-0.316,4.038-0.941,5.97
						c-0.283,0.875-0.063,1.835,0.574,2.5c3.478,3.626,5.393,8.386,5.393,13.402c0,3.537-0.959,6.954-2.766,9.958
						c-3.961,0.319-7.868-0.979-10.835-3.67c-1.021-0.928-2.604-0.85-3.531,0.172c-0.928,1.022-0.851,2.604,0.172,3.531
						c3.604,3.271,8.233,5.036,13.022,5.036c0.464,0,0.929-0.018,1.395-0.051c1.666,2.914,2.542,6.2,2.542,9.594
						c0,5.508-2.36,10.75-6.468,14.427c-6.396,1.716-13.186-1.211-16.356-7.013c1.536-2.59,2.303-5.664,1.981-8.883
						c-0.138-1.373-1.348-2.37-2.736-2.239c-1.374,0.138-2.376,1.363-2.238,2.737c0.527,5.274-3.334,9.994-8.608,10.521
						c-1.374,0.138-2.376,1.363-2.238,2.737c0.129,1.289,1.216,2.251,2.484,2.251c0.083,0,0.167-0.004,0.252-0.012
						c2.914-0.292,5.537-1.433,7.667-3.142c3.637,5.37,9.737,8.543,16.114,8.543c0.951,0,1.909-0.071,2.865-0.215
						c0.021,0.353,0.051,0.706,0.051,1.056c0,8.592-6.141,16.071-14.444,17.849c-0.668-2.111-1.689-4.111-3.036-5.888
						c-2.762-3.646-6.737-6.207-11.193-7.211c-1.355-0.304-2.686,0.542-2.988,1.889c-0.304,1.347,0.542,2.685,1.889,2.989
						c1.031,0.232,2.022,0.59,2.968,1.036c-1.318,2.454-3.321,4.498-5.788,5.843c-6.652,3.63-14.928,1.44-18.984-4.821
						c0.384-0.372,0.795-0.721,1.245-1.03c2.116-1.455,4.675-1.999,7.195-1.532c1.358,0.246,2.661-0.646,2.913-2.004
						c0.251-1.357-0.646-2.662-2.003-2.913c-3.838-0.707-7.723,0.117-10.939,2.33c-3.215,2.212-5.377,5.543-6.087,9.382
						c-0.251,1.357,0.646,2.662,2.003,2.913c0.154,0.028,0.307,0.042,0.458,0.042c1.182,0,2.232-0.842,2.455-2.046
						c0.023-0.122,0.058-0.24,0.085-0.36c3.737,4.375,9.196,6.795,14.792,6.795c3.138,0,6.318-0.761,9.262-2.366
						c3.138-1.711,5.721-4.263,7.495-7.326c0.439,0.444,0.859,0.908,1.239,1.41c1.323,1.748,2.209,3.785,2.63,5.918
						c-2.288,4.867-7.165,7.99-12.57,7.99c-0.918,0-1.84-0.091-2.738-0.271c-0.978-0.2-1.976,0.206-2.543,1.023
						c-2.913,4.185-7.688,6.683-12.773,6.683c-7.414,0-15.555-7.082-15.555-13.532v-22.376
						C143,171.416,144.131,171.521,145.258,171.521z"/>
				</g>
			</g>
		</g>
		<g>
			<g>
				<g>
					<path class="st1" d="M98.329,129.141v5.719c0,2.289,1.548,4.288,3.766,4.862l4.478,1.154l-2.352,3.984
						c-1.161,1.973-0.842,4.481,0.776,6.099l4.044,4.044c1.619,1.618,4.128,1.938,6.102,0.775l3.981-2.35l1.154,4.479
						c0.573,2.216,2.573,3.764,4.862,3.764h5.719c2.287,0,4.287-1.547,4.863-3.767l1.153-4.477l3.982,2.351
						c1.974,1.162,4.48,0.843,6.101-0.776l4.044-4.044c1.618-1.618,1.938-4.126,0.775-6.101l-2.351-3.981l4.48-1.155
						c2.216-0.574,3.763-2.573,3.763-4.861v-5.719c0-2.289-1.547-4.288-3.766-4.863l-4.478-1.154l2.352-3.984
						c1.161-1.972,0.842-4.48-0.776-6.099l-4.044-4.044c-1.62-1.619-4.128-1.938-6.102-0.775l-3.981,2.35l-1.154-4.481
						c-0.575-2.215-2.575-3.762-4.862-3.762h-5.719c-2.289,0-4.289,1.548-4.862,3.764c-0.001,0.001-0.001,0.002-0.001,0.003
						l-1.153,4.477l-3.983-2.351c-1.973-1.161-4.481-0.84-6.1,0.777l-4.045,4.044c-1.617,1.618-1.937,4.126-0.774,6.101l2.351,3.981
						l-4.479,1.154C99.877,124.852,98.329,126.851,98.329,129.141z M103.343,129.12l7.695-1.983
						c0.761-0.196,1.385-0.738,1.686-1.464c0.301-0.726,0.243-1.551-0.156-2.227l-4.035-6.869l4.069-4.049l6.844,4.039
						c0.676,0.399,1.501,0.457,2.228,0.157c0.726-0.301,1.268-0.925,1.464-1.686l1.982-7.695h5.762l1.982,7.695
						c0.196,0.761,0.738,1.385,1.464,1.686c0.727,0.301,1.553,0.243,2.228-0.157l6.869-4.034l4.048,4.069l-4.039,6.844
						c-0.399,0.676-0.457,1.501-0.156,2.227c0.301,0.726,0.925,1.269,1.686,1.464l7.709,2.004l-0.014,5.74l-7.695,1.983
						c-0.761,0.196-1.385,0.738-1.686,1.464c-0.301,0.726-0.243,1.551,0.156,2.227l4.035,6.869l-4.069,4.049l-6.844-4.039
						c-0.676-0.4-1.502-0.458-2.228-0.157c-0.726,0.301-1.268,0.925-1.464,1.686l-2.004,7.709l-5.74-0.014l-1.982-7.695
						c-0.196-0.761-0.738-1.385-1.464-1.686c-0.308-0.127-0.633-0.19-0.957-0.19c-0.441,0-0.881,0.117-1.271,0.347l-6.869,4.034
						l-4.048-4.069l4.039-6.844c0.399-0.676,0.457-1.501,0.156-2.227c-0.301-0.726-0.925-1.269-1.686-1.464l-7.709-2.003
						L103.343,129.12z"/>
				</g>
			</g>
		</g>
		<g>
			<g>
				<g>
					<path class="st1" d="M139.75,132c0-6.479-5.271-11.75-11.75-11.75s-11.75,5.271-11.75,11.75s5.271,11.75,11.75,11.75
						S139.75,138.479,139.75,132z M121.25,132c0-3.722,3.028-6.75,6.75-6.75s6.75,3.028,6.75,6.75s-3.028,6.75-6.75,6.75
						S121.25,135.722,121.25,132z"/>
				</g>
			</g>
		</g>
	</g>
	<g>
		<g>
			<g>
				<g>
					<g>
						<g>
							<g>
								<path class="st8" d="M91.698,78.849c0.324,0.141,0.662,0.208,0.995,0.208c0.965,0,1.885-0.563,2.294-1.504
									c0.55-1.266-0.03-2.739-1.297-3.289c-5.071-2.203-8.389-7.004-8.658-12.53c-0.067-1.38-1.229-2.448-2.619-2.375
									c-1.379,0.067-2.442,1.24-2.375,2.619C80.401,69.417,84.869,75.882,91.698,78.849z"/>
							</g>
						</g>
					</g>
					<g>
						<g>
							<g>
								<path class="st8" d="M79.311,187.698c2.944,1.605,6.124,2.366,9.262,2.366c6.881,0,13.558-3.662,17.077-10.116
									c0.661-1.212,0.215-2.73-0.997-3.392c-1.214-0.661-2.731-0.214-3.392,0.998c-3.807,6.978-12.582,9.557-19.556,5.754
									c-2.98-1.625-5.3-4.26-6.529-7.42c-0.5-1.286-1.949-1.925-3.237-1.423c-1.286,0.501-1.924,1.95-1.423,3.236
									C72.173,181.959,75.297,185.509,79.311,187.698z"/>
							</g>
						</g>
					</g>
					<g>
						<g>
							<g>
								<path class="st8" d="M77.992,82.536c-1.22,0.647-1.684,2.161-1.036,3.38c0.449,0.846,1.314,1.329,2.21,1.329
									c0.396,0,0.797-0.094,1.17-0.292c7.117-3.777,9.834-12.641,6.057-19.758c-0.648-1.22-2.162-1.683-3.38-1.037
									c-1.22,0.647-1.684,2.161-1.036,3.38C84.461,74.221,82.674,80.051,77.992,82.536z"/>
							</g>
						</g>
					</g>
					<g>
						<g>
							<g>
								<path class="st8" d="M59.89,102.5c-0.938,1.012-0.879,2.594,0.133,3.533c0.481,0.446,1.091,0.667,1.699,0.667
									c0.672,0,1.342-0.269,1.834-0.8c3.106-3.35,4.937-7.71,5.151-12.278c0.313-6.588-2.701-12.825-8.06-16.683
									c-1.121-0.807-2.683-0.551-3.489,0.568c-0.808,1.121-0.553,2.683,0.567,3.49c3.98,2.866,6.219,7.498,5.987,12.39
									C63.553,96.777,62.195,100.014,59.89,102.5z"/>
							</g>
						</g>
					</g>
					<g>
						<g>
							<g>
								<path class="st8" d="M52.028,165.96c7.364,0,14.369-4.229,17.624-11.192c0.585-1.25,0.045-2.739-1.206-3.323
									c-1.253-0.585-2.738-0.045-3.323,1.206c-3.047,6.515-10.511,9.807-17.356,7.655c-1.316-0.415-2.721,0.319-3.134,1.636
									c-0.414,1.317,0.318,2.721,1.636,3.134C48.174,165.675,50.112,165.96,52.028,165.96z"/>
							</g>
						</g>
					</g>
					<g>
						<g>
							<g>
								<path class="st8" d="M81.614,128.064c1.834-1.821,4.12-3.116,6.612-3.745c1.339-0.338,2.149-1.697,1.812-3.036
									c-0.338-1.34-1.696-2.149-3.036-1.812c-3.359,0.848-6.44,2.593-8.911,5.045c-0.979,0.973-0.985,2.556-0.013,3.535
									c0.489,0.492,1.132,0.739,1.774,0.739C80.489,128.79,81.126,128.548,81.614,128.064z"/>
							</g>
						</g>
					</g>
					<g>
						<g>
							<g>
								<path class="st8" d="M110.742,167.521c2.141,0,4.302-0.355,6.398-1.083c1.304-0.453,1.994-1.877,1.541-3.182
									c-0.452-1.304-1.874-1.996-3.182-1.542c-5.097,1.769-10.7,0.573-14.622-3.122c-2.473-2.327-4.048-5.464-4.437-8.832
									c-0.158-1.372-1.395-2.357-2.771-2.197c-1.371,0.158-2.354,1.398-2.196,2.77c0.523,4.538,2.646,8.764,5.976,11.899
									C101.119,165.688,105.879,167.521,110.742,167.521z"/>
							</g>
						</g>
					</g>
					<g>
						<g>
							<g>
								<path class="st8" d="M65.339,190.471c1.218,0,2.284-0.891,2.47-2.131c0.354-2.368,1.312-4.635,2.768-6.558
									c2.051-2.707,5.002-4.608,8.309-5.353c1.347-0.304,2.192-1.642,1.889-2.989c-0.304-1.346-1.634-2.191-2.988-1.889
									c-4.456,1.005-8.432,3.566-11.193,7.211c-1.962,2.588-3.251,5.645-3.729,8.838c-0.204,1.365,0.737,2.638,2.103,2.842
									C65.092,190.461,65.216,190.471,65.339,190.471z"/>
							</g>
						</g>
					</g>
					<g>
						<g>
							<g>
								<path class="st8" d="M45.818,136.49c4.789,0,9.418-1.766,13.022-5.036c1.022-0.928,1.1-2.509,0.172-3.531
									c-0.928-1.023-2.51-1.1-3.531-0.172c-3.208,2.909-7.504,4.214-11.796,3.583c-1.374-0.205-2.637,0.743-2.839,2.108
									c-0.201,1.366,0.743,2.636,2.108,2.838C43.912,136.42,44.868,136.49,45.818,136.49z"/>
							</g>
						</g>
					</g>
					<g>
						<g>
							<g>
								<path class="st8" d="M93.452,103.217c1.231,0,2.305-0.911,2.475-2.165c0.517-3.815,2.488-7.2,5.552-9.532
									c3.064-2.333,6.853-3.331,10.666-2.815c0.592,0.081,1.182,0.198,1.754,0.348c1.333,0.352,2.703-0.446,3.054-1.783
									c0.351-1.335-0.447-2.702-1.782-3.053c-0.769-0.202-1.561-0.359-2.354-0.467c-5.142-0.695-10.241,0.651-14.366,3.791
									c-4.127,3.141-6.782,7.701-7.479,12.84c-0.186,1.368,0.773,2.627,2.142,2.813C93.228,103.209,93.341,103.217,93.452,103.217
									z"/>
							</g>
						</g>
					</g>
					<g>
						<g>
							<g>
								<path class="st8" d="M54.647,108.894c1.981-1.632,4.472-2.393,7.036-2.149c2.556,0.247,4.862,1.474,6.494,3.456
									c0.494,0.6,1.21,0.911,1.931,0.911c0.56,0,1.123-0.187,1.589-0.57c1.065-0.878,1.218-2.454,0.34-3.519
									c-2.481-3.013-5.988-4.878-9.873-5.254c-3.876-0.37-7.683,0.785-10.696,3.267c-1.065,0.878-1.218,2.454-0.34,3.519
									C52.006,109.62,53.582,109.771,54.647,108.894z"/>
							</g>
						</g>
					</g>
					<g>
						<g>
							<g>
								<path class="st8" d="M77.195,136.821c0.385,0.214,0.802,0.316,1.213,0.316c0.878,0,1.729-0.463,2.187-1.285
									c1.897-3.411,2.354-7.357,1.283-11.11s-3.538-6.866-6.95-8.763c-1.206-0.672-2.729-0.237-3.399,0.969s-0.237,2.729,0.97,3.4
									c2.244,1.249,3.867,3.295,4.571,5.765s0.404,5.064-0.844,7.309C75.555,134.627,75.988,136.15,77.195,136.821z"/>
							</g>
						</g>
					</g>
					<g>
						<g>
							<g>
								<path class="st8" d="M65.46,142.325c-1.387-0.136-2.599,0.865-2.736,2.239c-0.803,8.018,5.067,15.193,13.085,15.995
									c0.085,0.008,0.169,0.012,0.252,0.012c1.269,0,2.355-0.962,2.484-2.251c0.138-1.374-0.864-2.599-2.238-2.737
									c-5.274-0.527-9.136-5.248-8.608-10.521C67.836,143.688,66.834,142.463,65.46,142.325z"/>
							</g>
						</g>
					</g>
					<g>
						<g>
							<g>
								<path class="st8" d="M92.249,175.925c2.521-0.467,5.079,0.077,7.195,1.532c2.115,1.455,3.537,3.647,4.005,6.172
									c0.223,1.204,1.273,2.046,2.455,2.046c0.151,0,0.304-0.014,0.458-0.042c1.357-0.251,2.254-1.556,2.003-2.913
									c-0.71-3.838-2.872-7.17-6.087-9.382c-3.216-2.212-7.103-3.039-10.939-2.33c-1.357,0.251-2.254,1.556-2.003,2.913
									C89.587,175.28,90.888,176.173,92.249,175.925z"/>
							</g>
						</g>
					</g>
					<g>
						<g>
							<g>
								<path class="st8" d="M44.339,163.572c-0.15,1.076-0.227,2.158-0.227,3.229c0,11.183,8.162,20.907,19.094,22.894
									c0.074,0.057,0.148,0.114,0.223,0.171c3.117,6.598,9.749,10.824,17.087,10.824c0.713,0,1.428-0.041,2.137-0.121
									c3.89,4.758,9.729,7.556,15.918,7.556c10.182,0,20.555-9.353,20.555-18.532v-26.129c0-1.381-1.119-2.5-2.5-2.5
									s-2.5,1.119-2.5,2.5v26.129c0,6.45-8.141,13.532-15.555,13.532c-5.085,0-9.86-2.498-12.773-6.683
									c-0.568-0.816-1.562-1.223-2.543-1.023c-0.898,0.18-1.82,0.271-2.738,0.271c-5.566,0-10.581-3.307-12.775-8.425
									c-0.177-0.411-0.46-0.768-0.82-1.032c-0.387-0.284-0.766-0.577-1.143-0.871c-0.339-0.264-0.739-0.436-1.163-0.5
									c-8.838-1.341-15.502-9.105-15.502-18.061c0-1.146,0.111-2.311,0.332-3.461c0.08-0.418,0.053-0.849-0.081-1.253
									l-0.119-0.353c-0.139-0.433-0.393-0.82-0.735-1.119c-4.212-3.684-6.628-9-6.628-14.583c0-3.902,1.156-7.664,3.343-10.879
									c0.577-0.848,0.577-1.963,0-2.812c-2.187-3.215-3.343-6.977-3.343-10.879c0-5.016,1.915-9.776,5.393-13.402
									c0.637-0.664,0.857-1.624,0.574-2.5c-0.625-1.932-0.941-3.94-0.941-5.97c0-8.241,5.23-15.595,13.016-18.299
									c0.831-0.289,1.449-0.993,1.628-1.854c1.854-8.931,9.83-15.413,18.966-15.413c0.583,0,1.197,0.03,1.825,0.089
									c1.131,0.107,2.16-0.543,2.564-1.584c2.276-5.865,7.81-9.654,14.098-9.654c7.413,0,13.84,5.517,14.949,12.833
									c0.008,0.053,0.018,0.105,0.029,0.158c0.095,0.438,0.144,0.875,0.144,1.301v23.26c0,1.381,1.119,2.5,2.5,2.5
									s2.5-1.119,2.5-2.5v-23.26c0-0.756-0.081-1.525-0.241-2.286c-1.51-9.701-10.043-17.005-19.881-17.005
									c-7.746,0-14.633,4.321-18.015,11.155c-0.159-0.003-0.316-0.005-0.473-0.005c-11.025,0-20.709,7.506-23.539,18.039
									c-9.07,3.743-15.07,12.626-15.07,22.527c0,2.063,0.26,4.107,0.774,6.098c-3.751,4.406-5.8,9.952-5.8,15.774
									c0,4.351,1.144,8.564,3.32,12.285c-2.177,3.72-3.32,7.934-3.32,12.285C36.881,152.66,39.585,158.987,44.339,163.572z"/>
							</g>
						</g>
					</g>
				</g>
			</g>
			<g>
				<g>
					<g>
						<g>
							<g>
								<path class="st8" d="M163.307,79.056c0.333,0,0.671-0.066,0.995-0.208c6.829-2.967,11.297-9.432,11.66-16.873
									c0.067-1.379-0.996-2.551-2.375-2.619c-1.398-0.069-2.551,0.996-2.619,2.375c-0.27,5.525-3.587,10.327-8.658,12.53
									c-1.267,0.55-1.847,2.023-1.297,3.289C161.422,78.494,162.342,79.056,163.307,79.056z"/>
							</g>
						</g>
					</g>
					<g>
						<g>
							<g>
								<path class="st8" d="M167.428,190.064c3.138,0,6.318-0.761,9.262-2.366c4.014-2.189,7.138-5.739,8.795-9.996
									c0.501-1.287-0.137-2.735-1.423-3.236c-1.29-0.501-2.736,0.136-3.237,1.423c-1.229,3.16-3.549,5.794-6.529,7.42
									c-6.976,3.805-15.749,1.225-19.556-5.754c-0.66-1.213-2.181-1.658-3.392-0.998c-1.212,0.661-1.658,2.18-0.997,3.392
									C153.87,186.403,160.546,190.064,167.428,190.064z"/>
							</g>
						</g>
					</g>
					<g>
						<g>
							<g>
								<path class="st8" d="M172.987,66.158c-1.219-0.648-2.734-0.184-3.38,1.037c-3.777,7.117-1.061,15.98,6.057,19.758
									c0.373,0.198,0.774,0.292,1.17,0.292c0.896,0,1.761-0.482,2.21-1.329c0.647-1.219,0.184-2.733-1.036-3.38
									c-4.682-2.484-6.469-8.315-3.984-12.997C174.671,68.319,174.207,66.806,172.987,66.158z"/>
							</g>
						</g>
					</g>
					<g>
						<g>
							<g>
								<path class="st8" d="M198.274,80.996c1.12-0.807,1.375-2.369,0.567-3.49c-0.807-1.12-2.368-1.375-3.489-0.568
									c-5.358,3.858-8.372,10.095-8.06,16.683c0.215,4.568,2.045,8.929,5.151,12.279c0.493,0.531,1.162,0.8,1.834,0.8
									c0.608,0,1.218-0.221,1.699-0.667c1.012-0.939,1.071-2.521,0.133-3.533c-2.306-2.486-3.663-5.722-3.823-9.114
									C192.056,88.494,194.294,83.862,198.274,80.996z"/>
							</g>
						</g>
					</g>
					<g>
						<g>
							<g>
								<path class="st8" d="M203.972,165.96c1.915,0,3.855-0.286,5.76-0.884c1.317-0.414,2.05-1.817,1.636-3.134
									c-0.413-1.317-1.818-2.051-3.134-1.636c-6.85,2.151-14.31-1.14-17.356-7.655c-0.584-1.25-2.073-1.79-3.323-1.206
									c-1.251,0.584-1.791,2.073-1.206,3.323C189.604,161.732,196.606,165.96,203.972,165.96z"/>
							</g>
						</g>
					</g>
					<g>
						<g>
							<g>
								<path class="st8" d="M174.386,128.064c0.488,0.484,1.125,0.726,1.762,0.726c0.643,0,1.285-0.247,1.774-0.739
									c0.973-0.979,0.967-2.563-0.013-3.535c-2.471-2.452-5.552-4.197-8.911-5.045c-1.338-0.337-2.697,0.474-3.036,1.812
									c-0.338,1.338,0.473,2.698,1.812,3.036C170.266,124.948,172.552,126.243,174.386,128.064z"/>
							</g>
						</g>
					</g>
					<g>
						<g>
							<g>
								<path class="st8" d="M145.258,167.521c4.863,0,9.623-1.833,13.292-5.288c3.33-3.135,5.452-7.361,5.976-11.899
									c0.158-1.372-0.825-2.612-2.196-2.77c-1.38-0.162-2.613,0.825-2.771,2.197c-0.389,3.368-1.964,6.504-4.437,8.832
									c-3.924,3.695-9.526,4.892-14.622,3.122c-1.307-0.455-2.729,0.237-3.182,1.542c-0.453,1.304,0.237,2.729,1.541,3.182
									C140.957,167.166,143.117,167.521,145.258,167.521z"/>
							</g>
						</g>
					</g>
					<g>
						<g>
							<g>
								<path class="st8" d="M185.424,181.782c1.456,1.923,2.414,4.19,2.768,6.558c0.186,1.24,1.252,2.131,2.47,2.131
									c0.123,0,0.247-0.009,0.373-0.028c1.365-0.204,2.307-1.477,2.103-2.842c-0.478-3.194-1.767-6.25-3.729-8.838
									c-2.762-3.646-6.737-6.207-11.193-7.211c-1.355-0.305-2.686,0.542-2.988,1.889c-0.304,1.347,0.542,2.685,1.889,2.989
									C180.422,177.174,183.373,179.075,185.424,181.782z"/>
							</g>
						</g>
					</g>
					<g>
						<g>
							<g>
								<path class="st8" d="M213.045,136.279c1.365-0.202,2.31-1.472,2.108-2.838c-0.202-1.366-1.464-2.313-2.839-2.108
									c-4.285,0.635-8.589-0.673-11.796-3.583c-1.021-0.928-2.604-0.85-3.531,0.172c-0.928,1.022-0.851,2.604,0.172,3.531
									c3.604,3.271,8.233,5.036,13.022,5.036C211.132,136.49,212.089,136.42,213.045,136.279z"/>
							</g>
						</g>
					</g>
					<g>
						<g>
							<g>
								<path class="st8" d="M142.102,89.053c0.572-0.15,1.162-0.268,1.754-0.348c3.813-0.519,7.603,0.482,10.666,2.814
									s5.035,5.717,5.552,9.532c0.17,1.254,1.243,2.165,2.475,2.165c0.111,0,0.225-0.008,0.339-0.023
									c1.368-0.186,2.327-1.445,2.142-2.813c-0.696-5.139-3.352-9.699-7.479-12.84c-4.125-3.141-9.228-4.487-14.366-3.791
									c-0.793,0.107-1.585,0.265-2.354,0.466c-1.335,0.351-2.133,1.718-1.782,3.053C139.398,88.606,140.771,89.401,142.102,89.053
									z"/>
							</g>
						</g>
					</g>
					<g>
						<g>
							<g>
								<path class="st8" d="M187.822,110.2c1.632-1.981,3.938-3.209,6.494-3.456c2.558-0.245,5.055,0.516,7.036,2.149
									c1.065,0.876,2.642,0.725,3.52-0.34s0.726-2.641-0.34-3.519c-3.014-2.482-6.817-3.637-10.696-3.267
									c-3.885,0.375-7.392,2.241-9.873,5.254c-0.878,1.065-0.726,2.641,0.34,3.519c0.466,0.383,1.029,0.57,1.589,0.57
									C186.612,111.111,187.328,110.8,187.822,110.2z"/>
							</g>
						</g>
					</g>
					<g>
						<g>
							<g>
								<path class="st8" d="M183.502,120.348c1.207-0.671,1.641-2.193,0.97-3.4s-2.193-1.641-3.399-0.969
									c-3.412,1.897-5.88,5.009-6.95,8.763s-0.614,7.699,1.283,11.11c0.457,0.822,1.309,1.285,2.187,1.285
									c0.411,0,0.828-0.102,1.213-0.316c1.207-0.671,1.641-2.193,0.97-3.4c-1.248-2.244-1.548-4.839-0.844-7.309
									S181.258,121.596,183.502,120.348z"/>
							</g>
						</g>
					</g>
					<g>
						<g>
							<g>
								<path class="st8" d="M179.693,155.583c-1.374,0.138-2.376,1.363-2.238,2.737c0.129,1.289,1.216,2.251,2.484,2.251
									c0.083,0,0.167-0.004,0.252-0.012c8.018-0.802,13.888-7.978,13.085-15.995c-0.138-1.373-1.348-2.369-2.736-2.239
									c-1.374,0.138-2.376,1.363-2.238,2.737C188.829,150.336,184.968,155.056,179.693,155.583z"/>
							</g>
						</g>
					</g>
					<g>
						<g>
							<g>
								<path class="st8" d="M150.096,185.675c1.182,0,2.232-0.842,2.455-2.046c0.468-2.525,1.89-4.717,4.005-6.172
									c2.116-1.455,4.675-1.999,7.195-1.532c1.358,0.247,2.661-0.646,2.913-2.004c0.251-1.357-0.646-2.662-2.003-2.913
									c-3.838-0.708-7.723,0.117-10.939,2.33c-3.215,2.212-5.377,5.543-6.087,9.382c-0.251,1.357,0.646,2.662,2.003,2.913
									C149.792,185.661,149.944,185.675,150.096,185.675z"/>
							</g>
						</g>
					</g>
					<g>
						<g>
							<g>
								<path class="st8" d="M139.375,160.964c-1.381,0-2.5,1.119-2.5,2.5v26.129c0,9.179,10.373,18.532,20.555,18.532
									c6.188,0,12.028-2.798,15.918-7.556c0.709,0.081,1.424,0.121,2.137,0.121c7.338,0,13.97-4.226,17.087-10.824
									c0.074-0.057,0.148-0.114,0.223-0.171c10.932-1.987,19.094-11.711,19.094-22.894c0-1.071-0.076-2.153-0.227-3.229
									c4.754-4.585,7.458-10.912,7.458-17.54c0-4.351-1.144-8.565-3.32-12.285c2.177-3.72,3.32-7.934,3.32-12.285
									c0-5.822-2.049-11.368-5.8-15.774c0.515-1.991,0.774-4.036,0.774-6.098c0-9.901-6-18.785-15.07-22.527
									c-2.83-10.532-12.514-18.039-23.539-18.039c-0.156,0-0.313,0.001-0.473,0.005c-3.382-6.833-10.269-11.155-18.015-11.155
									c-9.838,0-18.371,7.305-19.881,17.005c-0.16,0.761-0.241,1.529-0.241,2.286v23.26c0,1.381,1.119,2.5,2.5,2.5
									s2.5-1.119,2.5-2.5v-23.26c0-0.426,0.049-0.863,0.144-1.301c0.012-0.052,0.021-0.105,0.029-0.158
									c1.109-7.316,7.536-12.833,14.949-12.833c6.288,0,11.821,3.79,14.098,9.654c0.404,1.042,1.436,1.693,2.564,1.584
									c0.628-0.059,1.242-0.089,1.825-0.089c9.136,0,17.112,6.482,18.966,15.413c0.179,0.861,0.797,1.565,1.628,1.854
									c7.785,2.704,13.016,10.058,13.016,18.299c0,2.03-0.316,4.038-0.941,5.97c-0.283,0.875-0.063,1.835,0.574,2.5
									c3.478,3.626,5.393,8.386,5.393,13.402c0,3.902-1.156,7.664-3.343,10.879c-0.577,0.848-0.577,1.963,0,2.812
									c2.187,3.215,3.343,6.977,3.343,10.879c0,5.583-2.416,10.898-6.628,14.583c-0.343,0.299-0.597,0.686-0.735,1.119
									l-0.119,0.353c-0.134,0.404-0.161,0.835-0.081,1.253c0.221,1.15,0.332,2.315,0.332,3.461c0,8.955-6.664,16.72-15.502,18.061
									c-0.424,0.064-0.824,0.237-1.163,0.5c-0.377,0.294-0.756,0.587-1.143,0.871c-0.36,0.264-0.644,0.621-0.82,1.032
									c-2.194,5.118-7.209,8.425-12.775,8.425c-0.918,0-1.84-0.091-2.738-0.271c-0.978-0.199-1.976,0.206-2.543,1.023
									c-2.913,4.185-7.688,6.683-12.773,6.683c-7.414,0-15.555-7.082-15.555-13.532v-26.129
									C141.875,162.083,140.756,160.964,139.375,160.964z"/>
							</g>
						</g>
					</g>
				</g>
			</g>
		</g>
		<g>
			<g>
				<g>
					<g>
						<path class="st9" d="M90.038,121.283c-0.286-1.135-1.304-1.888-2.422-1.888c-0.203,0-0.409,0.025-0.614,0.076
							c-2.185,0.552-4.249,1.489-6.108,2.748c-1.302-2.619-3.354-4.788-5.966-6.24c-0.385-0.214-0.802-0.316-1.213-0.316
							c-0.878,0-1.73,0.464-2.187,1.285c-0.671,1.207-0.237,2.729,0.97,3.4c2.244,1.249,3.867,3.295,4.571,5.765
							s0.404,5.064-0.844,7.309c-0.671,1.207-0.237,2.729,0.97,3.4c0.385,0.214,0.802,0.316,1.213,0.316
							c0.878,0,1.729-0.463,2.187-1.285c1.458-2.622,2.056-5.559,1.773-8.482c1.691-1.456,3.697-2.505,5.859-3.051
							C89.565,123.981,90.376,122.622,90.038,121.283z M87.859,122.865c-2.369,0.598-4.606,1.763-6.47,3.368
							c-0.369,0.318-0.561,0.796-0.514,1.281c0.256,2.646-0.294,5.277-1.591,7.609c-0.176,0.317-0.512,0.514-0.876,0.514
							c-0.17,0-0.332-0.042-0.484-0.127c-0.233-0.13-0.402-0.343-0.475-0.599s-0.042-0.527,0.088-0.76
							c1.443-2.594,1.789-5.595,0.975-8.449c-0.814-2.854-2.691-5.221-5.285-6.664c-0.233-0.13-0.402-0.343-0.475-0.599
							s-0.042-0.527,0.088-0.76c0.176-0.317,0.512-0.514,0.875-0.514c0.17,0,0.332,0.043,0.484,0.127
							c2.323,1.292,4.174,3.227,5.352,5.597c0.193,0.387,0.543,0.673,0.962,0.783c0.126,0.033,0.254,0.049,0.381,0.049
							c0.297,0,0.591-0.088,0.841-0.258c1.738-1.177,3.633-2.03,5.633-2.535c0.082-0.021,0.166-0.031,0.248-0.031
							c0.458,0,0.856,0.311,0.968,0.756c0.065,0.259,0.026,0.528-0.111,0.757C88.336,122.637,88.118,122.799,87.859,122.865z"/>
					</g>
				</g>
			</g>
			<g>
				<g>
					<g>
						<path class="st9" d="M44.339,163.572c-0.15,1.076-0.227,2.158-0.227,3.229c0,11.183,8.162,20.907,19.094,22.894
							c0.074,0.057,0.148,0.114,0.223,0.171c3.117,6.598,9.749,10.824,17.087,10.824c0.713,0,1.428-0.041,2.137-0.121
							c3.89,4.758,9.729,7.556,15.918,7.556c10.182,0,20.555-9.353,20.555-18.532v-26.129c0-1.381-1.119-2.5-2.5-2.5
							c-0.826,0-1.553,0.406-2.008,1.023c-1.278,0.355-2.581,0.529-3.873,0.529c-3.611,0-7.143-1.359-9.866-3.924
							c-2.473-2.327-4.048-5.464-4.437-8.832c-0.147-1.274-1.223-2.214-2.477-2.214c-0.097,0-0.195,0.006-0.293,0.017
							c-1.371,0.158-2.354,1.398-2.196,2.77c0.523,4.538,2.646,8.764,5.976,11.899c3.669,3.455,8.429,5.288,13.292,5.288
							c1.126,0,2.258-0.105,3.383-0.304v22.376c0,6.45-8.141,13.532-15.555,13.532c-5.085,0-9.86-2.498-12.773-6.683
							c-0.472-0.678-1.237-1.073-2.045-1.073c-0.165,0-0.331,0.016-0.498,0.05c-0.898,0.18-1.82,0.271-2.738,0.271
							c-5.405,0-10.282-3.124-12.57-7.99c0.421-2.133,1.307-4.171,2.63-5.918c0.38-0.502,0.801-0.966,1.239-1.41
							c1.775,3.063,4.357,5.614,7.495,7.326c2.944,1.605,6.124,2.366,9.262,2.366c5.595,0,11.054-2.421,14.792-6.796
							c0.027,0.121,0.063,0.239,0.085,0.361c0.223,1.204,1.273,2.046,2.455,2.046c0.151,0,0.304-0.014,0.458-0.042
							c1.357-0.251,2.254-1.556,2.003-2.913c-0.71-3.838-2.872-7.17-6.087-9.382c-2.465-1.695-5.324-2.577-8.252-2.577
							c-0.892,0-1.791,0.082-2.687,0.248c-1.357,0.251-2.254,1.556-2.003,2.913c0.223,1.206,1.273,2.045,2.458,2.045
							c0.15,0,0.302-0.013,0.455-0.041c0.589-0.109,1.181-0.163,1.768-0.163c1.925,0,3.806,0.58,5.427,1.695
							c0.449,0.309,0.86,0.658,1.245,1.03c-2.726,4.207-7.358,6.575-12.121,6.575c-2.325,0-4.681-0.564-6.862-1.753
							c-2.467-1.345-4.47-3.389-5.788-5.843c0.946-0.447,1.936-0.804,2.968-1.036c1.347-0.304,2.192-1.642,1.889-2.989
							c-0.262-1.161-1.289-1.95-2.436-1.95c-0.182,0-0.367,0.02-0.553,0.061c-4.456,1.005-8.432,3.566-11.193,7.211
							c-1.347,1.777-2.368,3.777-3.036,5.888c-8.303-1.778-14.444-9.258-14.444-17.849c0-0.35,0.03-0.704,0.051-1.056
							c0.956,0.144,1.913,0.215,2.865,0.215c6.376,0,12.477-3.174,16.114-8.543c2.129,1.709,4.753,2.851,7.667,3.142
							c0.085,0.008,0.169,0.012,0.252,0.012c1.269,0,2.355-0.962,2.484-2.251c0.138-1.374-0.864-2.599-2.238-2.737
							c-5.274-0.527-9.136-5.248-8.608-10.521c0.138-1.374-0.864-2.599-2.238-2.737c-0.085-0.008-0.169-0.012-0.252-0.012
							c-1.279,0-2.355,0.962-2.484,2.251c-0.322,3.219,0.445,6.293,1.981,8.883c-2.562,4.688-7.491,7.5-12.661,7.5
							c-1.227,0-2.468-0.158-3.694-0.487c-4.108-3.678-6.468-8.919-6.468-14.427c0-3.394,0.876-6.68,2.542-9.594
							c0.466,0.033,0.931,0.051,1.395,0.051c4.789,0,9.418-1.766,13.022-5.036c1.022-0.928,1.1-2.509,0.172-3.531
							c-0.493-0.544-1.172-0.82-1.853-0.82c-0.599,0-1.2,0.214-1.679,0.648c-2.674,2.425-6.104,3.718-9.657,3.718
							c-0.392,0-0.785-0.016-1.179-0.047c-1.806-3.004-2.765-6.421-2.765-9.958c0-5.016,1.915-9.776,5.393-13.402
							c0.637-0.664,0.857-1.624,0.574-2.5c-0.625-1.932-0.941-3.94-0.941-5.97c0-7.801,4.69-14.8,11.794-17.82
							c3.365,2.887,5.225,7.14,5.013,11.615c-0.144,3.044-1.259,5.958-3.151,8.322c-3.311,0.042-6.497,1.188-9.094,3.326
							c-1.065,0.878-1.218,2.454-0.34,3.519c0.494,0.6,1.21,0.911,1.931,0.911c0.56,0,1.123-0.187,1.588-0.57
							c1.739-1.432,3.869-2.194,6.098-2.194c0.311,0,0.624,0.015,0.938,0.045c2.556,0.247,4.862,1.474,6.494,3.456
							c0.494,0.6,1.21,0.911,1.931,0.911c0.56,0,1.123-0.187,1.589-0.57c1.065-0.878,1.218-2.454,0.34-3.519
							c-1.639-1.99-3.731-3.466-6.078-4.356c1.631-2.728,2.597-5.831,2.748-9.043c0.287-6.041-2.23-11.781-6.78-15.668
							c2.362-8.073,9.818-13.803,18.331-13.917c0.324,2.1,0.974,4.099,1.919,5.933c2.16,4.604,0.355,10.157-4.185,12.567
							c-1.22,0.647-1.684,2.161-1.036,3.38c0.449,0.846,1.314,1.329,2.21,1.329c0.396,0,0.797-0.094,1.17-0.292
							c4.114-2.183,6.745-6.068,7.514-10.33c1.178,0.87,2.461,1.623,3.848,2.226c0.324,0.141,0.662,0.208,0.995,0.208
							c0.965,0,1.885-0.563,2.294-1.504c0.55-1.266-0.03-2.739-1.297-3.289c-3.155-1.371-5.63-3.748-7.116-6.679
							c-0.064-0.129-0.114-0.261-0.182-0.389c0-0.001-0.001-0.002-0.002-0.003c-0.73-1.555-1.185-3.255-1.323-5.038
							c2.365-5.647,7.785-9.279,13.935-9.279c7.413,0,13.84,5.517,14.949,12.833c0.008,0.053,0.018,0.105,0.029,0.158
							c0.095,0.438,0.144,0.875,0.144,1.301v16.811c-0.434-0.089-0.87-0.167-1.309-0.227c-0.884-0.12-1.768-0.179-2.645-0.179
							c-4.222,0-8.305,1.37-11.721,3.97c-4.127,3.141-6.782,7.701-7.479,12.84c-0.186,1.368,0.773,2.627,2.142,2.813
							c0.114,0.015,0.228,0.023,0.339,0.023c1.231,0,2.305-0.911,2.475-2.165c0.517-3.815,2.488-7.2,5.552-9.532
							c2.537-1.931,5.57-2.948,8.702-2.948c0.652,0,1.307,0.044,1.964,0.133c0.592,0.081,1.182,0.198,1.754,0.348
							c0.076,0.02,0.151,0.023,0.227,0.036v1.338c0,1.381,1.119,2.5,2.5,2.5s2.5-1.119,2.5-2.5v-23.26
							c0-0.756-0.081-1.525-0.241-2.286c-1.51-9.701-10.043-17.005-19.881-17.005c-7.746,0-14.633,4.321-18.015,11.155
							c-0.159-0.003-0.316-0.005-0.473-0.005c-11.025,0-20.709,7.506-23.539,18.039c-9.07,3.743-15.07,12.626-15.07,22.527
							c0,2.063,0.26,4.107,0.774,6.098c-3.751,4.406-5.8,9.952-5.8,15.774c0,4.351,1.144,8.564,3.32,12.285
							c-2.177,3.72-3.32,7.934-3.32,12.285C36.881,152.66,39.585,158.987,44.339,163.572z M41.496,132.99
							c-2.038-3.483-3.115-7.469-3.115-11.527c0-5.423,1.933-10.68,5.442-14.802c0.317-0.372,0.432-0.875,0.31-1.348
							c-0.482-1.866-0.727-3.791-0.727-5.723c0-9.298,5.551-17.596,14.142-21.141c0.431-0.178,0.755-0.547,0.876-0.997
							c2.678-9.967,11.762-16.928,22.09-16.928c0.146,0,0.292,0.001,0.44,0.005c0.011,0,0.022,0,0.032,0
							c0.569,0,1.091-0.323,1.344-0.835c3.15-6.366,9.538-10.32,16.67-10.32c9.093,0,17.003,6.765,18.399,15.736
							c0.004,0.026,0.009,0.052,0.014,0.078c0.139,0.659,0.209,1.324,0.209,1.977v23.26c0,0.552-0.449,1-1,1s-1-0.448-1-1v-1.338
							c0-0.733-0.529-1.358-1.252-1.479c-0.042-0.007-0.085-0.013-0.143-0.02c-0.616-0.16-1.249-0.284-1.884-0.371
							c-0.718-0.097-1.446-0.146-2.165-0.146c-3.491,0-6.814,1.125-9.611,3.254c-3.382,2.575-5.559,6.313-6.13,10.524
							c-0.067,0.494-0.492,0.866-0.988,0.866c-0.047,0-0.094-0.004-0.137-0.009c-0.265-0.036-0.5-0.173-0.662-0.385
							c-0.162-0.213-0.231-0.475-0.195-0.74c0.643-4.742,3.093-8.95,6.901-11.848c3.148-2.397,6.887-3.664,10.812-3.663
							c0.811,0,1.634,0.056,2.443,0.165c0.376,0.051,0.771,0.12,1.209,0.209c0.1,0.021,0.201,0.031,0.302,0.031
							c0.342,0,0.678-0.117,0.948-0.337c0.349-0.285,0.552-0.712,0.552-1.163V67.166c0-0.53-0.06-1.074-0.177-1.618
							c-0.001-0.004-0.011-0.061-0.012-0.065c-1.22-8.043-8.284-14.108-16.432-14.108c-6.712,0-12.725,4.003-15.319,10.199
							c-0.092,0.219-0.13,0.458-0.112,0.695c0.151,1.945,0.642,3.816,1.471,5.58c0.01,0.021,0.021,0.041,0.032,0.061
							c0.019,0.037,0.035,0.076,0.052,0.114c0.033,0.075,0.067,0.149,0.11,0.237c1.661,3.278,4.452,5.897,7.856,7.377
							c0.506,0.22,0.738,0.81,0.519,1.316c-0.159,0.366-0.519,0.602-0.918,0.602c-0.137,0-0.27-0.028-0.397-0.083
							c-1.241-0.539-2.437-1.231-3.555-2.057c-0.262-0.194-0.575-0.293-0.891-0.293c-0.187,0-0.375,0.035-0.553,0.106
							c-0.482,0.191-0.83,0.617-0.923,1.128c-0.722,4.002-3.18,7.381-6.741,9.271c-0.147,0.078-0.304,0.117-0.467,0.117
							c-0.372,0-0.711-0.204-0.885-0.532c-0.125-0.236-0.151-0.506-0.073-0.761c0.078-0.255,0.251-0.465,0.487-0.59
							c5.234-2.777,7.36-9.159,4.84-14.529c-0.008-0.017-0.016-0.034-0.025-0.05c-0.876-1.699-1.472-3.541-1.77-5.474
							c-0.113-0.732-0.743-1.271-1.482-1.271c-0.007,0-0.014,0-0.02,0c-9.081,0.122-17.203,6.288-19.751,14.996
							c-0.166,0.567,0.016,1.178,0.465,1.562c4.24,3.622,6.52,8.891,6.256,14.457c-0.137,2.912-1.014,5.798-2.537,8.344
							c-0.228,0.381-0.275,0.843-0.129,1.262s0.47,0.752,0.885,0.91c2.125,0.806,4.01,2.157,5.452,3.908
							c0.351,0.426,0.289,1.057-0.135,1.407c-0.23,0.189-0.472,0.229-0.636,0.229c-0.301,0-0.582-0.133-0.773-0.364
							c-1.887-2.291-4.553-3.71-7.51-3.995c-0.359-0.034-0.722-0.052-1.08-0.052c-2.599,0-5.038,0.877-7.052,2.536
							c-0.229,0.189-0.472,0.228-0.635,0.228c-0.301,0-0.583-0.133-0.773-0.365c-0.351-0.426-0.289-1.057,0.136-1.407
							c2.325-1.915,5.146-2.947,8.159-2.984c0.449-0.006,0.872-0.212,1.152-0.563c2.087-2.606,3.322-5.869,3.479-9.189
							c0.233-4.932-1.784-9.606-5.534-12.824c-0.277-0.238-0.625-0.362-0.977-0.362c-0.198,0-0.398,0.039-0.587,0.12
							c-7.719,3.282-12.707,10.818-12.707,19.2c0,2.187,0.341,4.351,1.014,6.432c0.113,0.351,0.025,0.734-0.23,1
							c-3.747,3.907-5.81,9.035-5.81,14.44c0,3.778,1.03,7.489,2.98,10.731c0.249,0.415,0.683,0.684,1.165,0.722
							c0.431,0.035,0.868,0.052,1.299,0.052c3.957,0,7.744-1.458,10.665-4.107c0.184-0.167,0.422-0.259,0.67-0.259
							c0.286,0,0.55,0.116,0.742,0.328c0.179,0.198,0.271,0.453,0.258,0.72s-0.129,0.513-0.327,0.692
							c-3.303,2.997-7.57,4.647-12.015,4.647c-0.415,0-0.849-0.016-1.288-0.047c-0.036-0.002-0.071-0.004-0.107-0.004
							c-0.535,0-1.034,0.286-1.302,0.756c-1.793,3.135-2.74,6.71-2.74,10.338c0,5.915,2.54,11.581,6.968,15.545
							c0.175,0.157,0.385,0.27,0.612,0.331c1.332,0.357,2.705,0.539,4.083,0.539c5.831,0,11.187-3.173,13.978-8.281
							c0.254-0.465,0.244-1.029-0.026-1.485c-1.442-2.431-2.057-5.186-1.779-7.968c0.051-0.514,0.478-0.901,0.992-0.901
							c0.035,0,0.07,0.002,0.103,0.005c0.266,0.027,0.505,0.155,0.674,0.362c0.169,0.207,0.247,0.467,0.221,0.733
							c-0.295,2.949,0.579,5.84,2.46,8.14c1.881,2.3,4.542,3.729,7.491,4.023c0.549,0.055,0.95,0.546,0.895,1.095
							c-0.051,0.513-0.478,0.9-0.992,0.9c-0.035,0-0.07-0.002-0.103-0.005c-2.515-0.251-4.893-1.226-6.877-2.819
							c-0.268-0.215-0.6-0.33-0.939-0.33c-0.074,0-0.149,0.006-0.224,0.017c-0.414,0.062-0.784,0.295-1.018,0.642
							c-3.344,4.937-8.903,7.885-14.872,7.885c-0.878,0-1.767-0.067-2.642-0.198c-0.074-0.011-0.149-0.017-0.223-0.017
							c-0.342,0-0.676,0.117-0.945,0.335c-0.327,0.265-0.528,0.656-0.553,1.077L47.65,165.9c-0.02,0.301-0.038,0.602-0.038,0.901
							c0,9.253,6.573,17.377,15.63,19.316c0.105,0.022,0.211,0.033,0.315,0.033c0.641,0,1.229-0.414,1.429-1.048
							c0.627-1.981,1.569-3.81,2.801-5.435c2.548-3.364,6.216-5.727,10.324-6.653c0.075-0.017,0.151-0.025,0.226-0.025
							c0.469,0,0.869,0.321,0.973,0.78c0.121,0.538-0.218,1.074-0.755,1.196c-1.089,0.246-2.192,0.63-3.279,1.144
							c-0.372,0.176-0.655,0.496-0.784,0.887c-0.129,0.391-0.091,0.817,0.103,1.179c1.473,2.743,3.683,4.973,6.391,6.45
							c2.323,1.267,4.945,1.937,7.581,1.937c5.434,0,10.436-2.714,13.38-7.259c0.39-0.602,0.299-1.395-0.216-1.894
							c-0.479-0.463-0.949-0.852-1.438-1.188c-1.864-1.281-4.034-1.959-6.277-1.959c-0.68,0-1.367,0.063-2.037,0.188
							c-0.062,0.011-0.125,0.017-0.186,0.017c-0.482,0-0.895-0.344-0.983-0.818c-0.1-0.542,0.259-1.065,0.801-1.165
							c0.799-0.148,1.611-0.223,2.415-0.223c2.643,0,5.202,0.8,7.402,2.313c2.885,1.985,4.825,4.975,5.462,8.419
							c0.1,0.542-0.259,1.065-0.799,1.165c-0.064,0.012-0.125,0.017-0.187,0.017c-0.48,0-0.892-0.344-0.98-0.819
							c-0.02-0.107-0.045-0.211-0.072-0.315l-0.025-0.101c-0.124-0.554-0.551-0.991-1.102-1.128c-0.12-0.03-0.241-0.044-0.361-0.044
							c-0.433,0-0.852,0.188-1.141,0.526c-3.404,3.985-8.38,6.27-13.651,6.27c-2.97,0-5.924-0.755-8.544-2.183
							c-2.868-1.564-5.259-3.902-6.915-6.761c-0.234-0.405-0.644-0.677-1.108-0.736c-0.063-0.008-0.127-0.012-0.19-0.012
							c-0.398,0-0.784,0.159-1.067,0.446c-0.541,0.548-0.988,1.057-1.368,1.558c-1.431,1.889-2.436,4.149-2.906,6.534
							c-0.062,0.314-0.022,0.639,0.114,0.928c2.528,5.377,7.994,8.852,13.927,8.852c1.016,0,2.037-0.101,3.037-0.301
							c0.066-0.013,0.133-0.02,0.199-0.02c0.322,0,0.627,0.161,0.814,0.43c3.193,4.587,8.429,7.326,14.005,7.326
							c8.288,0,17.055-7.727,17.055-15.032v-22.376c0-0.444-0.196-0.864-0.536-1.149c-0.272-0.228-0.614-0.351-0.964-0.351
							c-0.087,0-0.174,0.008-0.261,0.023c-1.054,0.186-2.104,0.281-3.122,0.281c-4.566,0-8.922-1.733-12.264-4.88
							c-3.073-2.893-5.031-6.792-5.514-10.979c-0.063-0.548,0.331-1.045,0.88-1.108c0.04-0.005,0.08-0.007,0.12-0.007
							c0.505,0,0.929,0.381,0.987,0.886c0.429,3.72,2.169,7.183,4.898,9.751c2.966,2.793,6.835,4.332,10.894,4.332
							c1.441,0,2.879-0.197,4.274-0.584c0.323-0.09,0.607-0.285,0.806-0.555c0.194-0.263,0.485-0.413,0.801-0.413
							c0.551,0,1,0.448,1,1v26.129c0,8.277-9.794,17.032-19.055,17.032c-5.739,0-11.117-2.553-14.757-7.005
							c-0.287-0.351-0.714-0.551-1.161-0.551c-0.056,0-0.113,0.003-0.17,0.01c-0.651,0.074-1.313,0.112-1.967,0.112
							c-6.696,0-12.871-3.911-15.731-9.965c-0.102-0.217-0.255-0.406-0.446-0.552l-0.218-0.167c-0.19-0.146-0.411-0.245-0.647-0.287
							c-10.183-1.851-17.862-11.059-17.862-21.418c0-0.998,0.071-2.014,0.212-3.021c0.066-0.475-0.099-0.954-0.444-1.287
							c-4.448-4.291-6.999-10.29-6.999-16.46c0-4.059,1.077-8.045,3.115-11.528C41.77,134.037,41.77,133.458,41.496,132.99z"/>
					</g>
				</g>
			</g>
			<g>
				<g>
					<g>
						<path class="st9" d="M183.502,120.348c1.207-0.671,1.641-2.193,0.97-3.4c-0.457-0.822-1.309-1.285-2.187-1.285
							c-0.411,0-0.828,0.102-1.213,0.316c-2.612,1.452-4.664,3.621-5.966,6.24c-1.858-1.259-3.922-2.196-6.108-2.748
							c-0.205-0.052-0.41-0.076-0.612-0.076c-1.118,0-2.137,0.755-2.424,1.888c-0.338,1.338,0.473,2.698,1.812,3.036
							c2.162,0.546,4.167,1.594,5.859,3.051c-0.283,2.923,0.315,5.861,1.773,8.482c0.457,0.822,1.309,1.285,2.187,1.285
							c0.411,0,0.828-0.102,1.213-0.316c1.207-0.671,1.641-2.193,0.97-3.4c-1.248-2.244-1.548-4.839-0.844-7.309
							S181.258,121.596,183.502,120.348z M178.464,134.15c0.13,0.233,0.161,0.504,0.088,0.76s-0.242,0.47-0.477,0.6
							c-0.151,0.084-0.313,0.126-0.483,0.126c-0.364,0-0.699-0.197-0.876-0.514c-1.297-2.332-1.847-4.963-1.591-7.608
							c0.047-0.485-0.145-0.963-0.514-1.281c-1.864-1.605-4.102-2.77-6.47-3.368c-0.259-0.065-0.477-0.228-0.613-0.457
							c-0.137-0.229-0.176-0.498-0.111-0.756c0.113-0.445,0.511-0.756,0.97-0.756c0.082,0,0.165,0.01,0.245,0.031
							c2.001,0.505,3.896,1.358,5.634,2.535c0.251,0.17,0.544,0.258,0.841,0.258c0.128,0,0.256-0.016,0.381-0.049
							c0.419-0.11,0.769-0.396,0.962-0.783c1.178-2.37,3.029-4.305,5.353-5.598c0.151-0.084,0.313-0.126,0.483-0.126
							c0.364,0,0.699,0.197,0.876,0.514c0.13,0.233,0.161,0.504,0.088,0.76s-0.242,0.47-0.476,0.6
							c-2.594,1.443-4.471,3.81-5.285,6.664C176.674,128.555,177.021,131.556,178.464,134.15z"/>
					</g>
				</g>
			</g>
			<g>
				<g>
					<g>
						<path class="st9" d="M145.258,167.521c4.863,0,9.623-1.833,13.292-5.288c3.33-3.135,5.452-7.361,5.976-11.899
							c0.158-1.372-0.825-2.612-2.196-2.77c-0.099-0.012-0.198-0.017-0.296-0.017c-1.256,0-2.329,0.941-2.475,2.214
							c-0.389,3.368-1.964,6.504-4.437,8.832c-2.724,2.565-6.256,3.925-9.866,3.925c-1.292,0-2.594-0.174-3.872-0.53
							c-0.455-0.618-1.182-1.024-2.008-1.024c-1.381,0-2.5,1.119-2.5,2.5v26.129c0,9.179,10.373,18.532,20.555,18.532
							c6.188,0,12.028-2.798,15.918-7.556c0.709,0.081,1.424,0.121,2.137,0.121c7.338,0,13.97-4.226,17.087-10.824
							c0.074-0.057,0.148-0.114,0.223-0.171c10.932-1.987,19.094-11.711,19.094-22.894c0-1.071-0.076-2.153-0.227-3.229
							c4.754-4.585,7.458-10.912,7.458-17.54c0-4.351-1.144-8.565-3.32-12.285c2.177-3.72,3.32-7.934,3.32-12.285
							c0-5.822-2.049-11.368-5.8-15.774c0.515-1.991,0.774-4.036,0.774-6.098c0-9.901-6-18.785-15.07-22.527
							c-2.83-10.532-12.514-18.039-23.539-18.039c-0.156,0-0.313,0.001-0.473,0.005c-3.382-6.833-10.269-11.155-18.015-11.155
							c-9.838,0-18.371,7.305-19.881,17.005c-0.16,0.761-0.241,1.529-0.241,2.286v23.26c0,1.381,1.119,2.5,2.5,2.5
							s2.5-1.119,2.5-2.5v-1.338c0.076-0.013,0.151-0.016,0.227-0.036c0.572-0.15,1.162-0.268,1.754-0.348
							c0.658-0.09,1.315-0.134,1.968-0.134c3.131,0,6.163,1.019,8.698,2.948c3.063,2.332,5.035,5.717,5.552,9.532
							c0.17,1.254,1.243,2.165,2.475,2.165c0.111,0,0.225-0.008,0.339-0.023c1.368-0.186,2.327-1.445,2.142-2.813
							c-0.696-5.139-3.352-9.699-7.479-12.84c-3.414-2.599-7.499-3.97-11.718-3.97c-0.879,0-1.762,0.059-2.648,0.179
							c-0.438,0.059-0.875,0.137-1.309,0.226V67.166c0-0.426,0.049-0.863,0.144-1.301c0.012-0.052,0.021-0.105,0.029-0.158
							c1.109-7.316,7.536-12.833,14.949-12.833c6.151,0,11.571,3.632,13.936,9.279c-0.138,1.783-0.593,3.483-1.323,5.038
							c0,0.001-0.001,0.002-0.002,0.003c-0.068,0.128-0.118,0.26-0.182,0.389c-1.486,2.931-3.961,5.308-7.116,6.679
							c-1.267,0.55-1.847,2.023-1.297,3.289c0.409,0.942,1.329,1.504,2.294,1.504c0.333,0,0.671-0.066,0.995-0.208
							c1.387-0.603,2.671-1.356,3.848-2.226c0.769,4.262,3.401,8.147,7.514,10.33c0.373,0.198,0.774,0.292,1.17,0.292
							c0.896,0,1.761-0.482,2.21-1.329c0.647-1.219,0.184-2.733-1.036-3.38c-4.54-2.409-6.346-7.963-4.185-12.567
							c0.945-1.834,1.595-3.833,1.919-5.933c8.513,0.114,15.969,5.845,18.331,13.917c-4.55,3.887-7.067,9.627-6.78,15.667
							c0.151,3.213,1.116,6.316,2.748,9.044c-2.347,0.89-4.439,2.366-6.078,4.356c-0.878,1.065-0.726,2.641,0.34,3.519
							c0.466,0.383,1.029,0.57,1.589,0.57c0.721,0,1.437-0.311,1.931-0.911c1.632-1.981,3.938-3.209,6.494-3.456
							c0.314-0.03,0.627-0.045,0.939-0.045c2.225,0,4.359,0.761,6.098,2.194c0.465,0.383,1.029,0.57,1.588,0.57
							c0.721,0,1.437-0.31,1.931-0.91c0.878-1.065,0.726-2.641-0.34-3.519c-2.597-2.139-5.781-3.285-9.094-3.327
							c-1.893-2.364-3.008-5.278-3.151-8.322c-0.212-4.475,1.648-8.727,5.013-11.615c7.104,3.02,11.794,10.019,11.794,17.82
							c0,2.03-0.316,4.038-0.941,5.97c-0.283,0.875-0.063,1.835,0.574,2.5c3.478,3.626,5.393,8.386,5.393,13.402
							c0,3.537-0.959,6.954-2.766,9.958c-0.394,0.032-0.789,0.048-1.181,0.048c-3.549,0-6.982-1.295-9.654-3.719
							c-0.478-0.434-1.079-0.648-1.678-0.648c-0.681,0-1.36,0.277-1.853,0.82c-0.928,1.022-0.851,2.604,0.172,3.531
							c3.604,3.271,8.233,5.036,13.022,5.036c0.464,0,0.929-0.018,1.395-0.051c1.666,2.914,2.542,6.2,2.542,9.594
							c0,5.508-2.36,10.75-6.468,14.427c-1.227,0.329-2.468,0.487-3.695,0.487c-5.172,0-10.099-2.811-12.66-7.5
							c1.536-2.59,2.303-5.664,1.981-8.883c-0.13-1.292-1.209-2.25-2.493-2.25c-0.08,0-0.161,0.004-0.243,0.011
							c-1.374,0.138-2.376,1.363-2.238,2.737c0.527,5.274-3.334,9.994-8.608,10.521c-1.374,0.138-2.376,1.363-2.238,2.737
							c0.129,1.289,1.216,2.251,2.484,2.251c0.083,0,0.167-0.004,0.252-0.012c2.914-0.292,5.537-1.433,7.667-3.142
							c3.637,5.37,9.737,8.543,16.114,8.543c0.951,0,1.909-0.071,2.865-0.215c0.021,0.353,0.051,0.706,0.051,1.056
							c0,8.592-6.141,16.071-14.444,17.849c-0.668-2.111-1.689-4.111-3.036-5.888c-2.762-3.646-6.737-6.207-11.193-7.211
							c-0.187-0.042-0.373-0.062-0.556-0.062c-1.147,0-2.172,0.79-2.433,1.951c-0.304,1.347,0.542,2.685,1.889,2.989
							c1.031,0.232,2.022,0.59,2.968,1.036c-1.318,2.454-3.321,4.498-5.788,5.843c-2.182,1.19-4.539,1.755-6.864,1.755
							c-4.764,0-9.394-2.368-12.12-6.576c0.384-0.372,0.795-0.721,1.245-1.03c1.621-1.115,3.503-1.695,5.428-1.695
							c0.587,0,1.178,0.054,1.768,0.163c0.152,0.028,0.304,0.041,0.453,0.041c1.184,0,2.236-0.839,2.46-2.045
							c0.251-1.357-0.646-2.662-2.003-2.913c-0.896-0.165-1.795-0.247-2.687-0.247c-2.929,0-5.787,0.88-8.252,2.576
							c-3.215,2.212-5.377,5.543-6.087,9.382c-0.251,1.357,0.646,2.662,2.003,2.913c0.154,0.028,0.307,0.042,0.458,0.042
							c1.182,0,2.232-0.842,2.455-2.046c0.023-0.122,0.058-0.24,0.085-0.36c3.737,4.375,9.196,6.795,14.792,6.795
							c3.138,0,6.318-0.761,9.262-2.366c3.138-1.711,5.721-4.263,7.495-7.326c0.439,0.444,0.859,0.908,1.239,1.41
							c1.323,1.748,2.209,3.785,2.63,5.918c-2.288,4.867-7.165,7.99-12.57,7.99c-0.918,0-1.84-0.091-2.738-0.271
							c-0.165-0.034-0.331-0.05-0.496-0.05c-0.807,0-1.576,0.394-2.047,1.073c-2.913,4.185-7.688,6.683-12.773,6.683
							c-7.414,0-15.555-7.082-15.555-13.532v-22.376C143,167.416,144.131,167.521,145.258,167.521z M157.43,204.625
							c5.576,0,10.811-2.739,14.005-7.327c0.187-0.268,0.491-0.429,0.815-0.429c0.066,0,0.132,0.007,0.202,0.021
							c0.996,0.199,2.016,0.3,3.032,0.3c5.933,0,11.399-3.475,13.927-8.852c0.136-0.29,0.176-0.615,0.114-0.928
							c-0.47-2.385-1.475-4.644-2.906-6.534c-0.379-0.501-0.827-1.01-1.367-1.558c-0.284-0.287-0.669-0.446-1.067-0.446
							c-0.063,0-0.127,0.004-0.19,0.012c-0.464,0.059-0.873,0.331-1.108,0.736c-1.656,2.859-4.048,5.197-6.916,6.761
							c-2.619,1.428-5.573,2.183-8.544,2.183c-5.272,0-10.247-2.285-13.651-6.27c-0.289-0.338-0.708-0.526-1.141-0.526
							c-0.12,0-0.241,0.014-0.361,0.044c-0.551,0.137-0.978,0.573-1.103,1.127l-0.025,0.101c-0.026,0.104-0.052,0.208-0.072,0.315
							c-0.088,0.474-0.5,0.819-0.98,0.819c-0.062,0-0.124-0.006-0.185-0.017c-0.542-0.1-0.901-0.623-0.801-1.165
							c0.637-3.444,2.577-6.434,5.462-8.419c2.199-1.513,4.759-2.313,7.402-2.312c0.803,0,1.616,0.075,2.414,0.222
							c0.542,0.101,0.901,0.623,0.801,1.165c-0.088,0.474-0.502,0.818-0.985,0.818c-0.061,0-0.123-0.006-0.18-0.016
							c-0.674-0.125-1.361-0.188-2.041-0.188c-2.243,0-4.414,0.677-6.278,1.959c-0.487,0.335-0.957,0.723-1.437,1.187
							c-0.516,0.498-0.606,1.292-0.217,1.894c2.945,4.546,7.946,7.26,13.379,7.26c2.636,0,5.258-0.67,7.582-1.938
							c2.708-1.477,4.918-3.707,6.391-6.45c0.195-0.362,0.232-0.789,0.103-1.179c-0.129-0.39-0.412-0.711-0.784-0.887
							c-1.086-0.513-2.189-0.898-3.278-1.143c-0.538-0.121-0.877-0.658-0.755-1.197c0.103-0.459,0.502-0.78,0.969-0.78
							c0.075,0,0.151,0.009,0.226,0.025c4.112,0.927,7.78,3.29,10.328,6.654c1.232,1.625,2.174,3.454,2.801,5.435
							c0.201,0.634,0.788,1.048,1.429,1.048c0.104,0,0.21-0.011,0.315-0.033c9.057-1.939,15.63-10.063,15.63-19.316
							c0-0.298-0.018-0.599-0.038-0.9l-0.015-0.244c-0.025-0.421-0.225-0.812-0.553-1.077c-0.269-0.218-0.603-0.335-0.945-0.335
							c-0.074,0-0.149,0.006-0.223,0.017c-0.875,0.132-1.764,0.198-2.642,0.198c-5.969,0-11.528-2.948-14.872-7.885
							c-0.235-0.347-0.604-0.58-1.019-0.642c-0.074-0.011-0.149-0.017-0.223-0.017c-0.339,0-0.671,0.115-0.939,0.33
							c-1.984,1.593-4.362,2.568-6.874,2.819c-0.036,0.003-0.071,0.005-0.106,0.005c-0.514,0-0.941-0.387-0.992-0.901
							c-0.055-0.549,0.347-1.04,0.895-1.095c2.949-0.295,5.61-1.724,7.492-4.023c1.881-2.3,2.755-5.19,2.46-8.14
							c-0.027-0.266,0.052-0.526,0.221-0.733c0.169-0.207,0.409-0.335,0.664-0.361c0.035-0.003,0.069-0.005,0.104-0.005
							c0.519,0,0.949,0.387,1.001,0.9c0.279,2.782-0.337,5.537-1.779,7.968c-0.27,0.456-0.28,1.02-0.026,1.485
							c2.791,5.108,8.146,8.281,13.977,8.281c1.378,0,2.752-0.181,4.084-0.539c0.227-0.061,0.437-0.174,0.612-0.331
							c4.428-3.964,6.968-9.63,6.968-15.545c0-3.628-0.948-7.203-2.74-10.338c-0.268-0.469-0.767-0.756-1.302-0.756
							c-0.036,0-0.072,0.001-0.108,0.004c-0.436,0.031-0.869,0.047-1.288,0.047c-4.445,0-8.712-1.65-12.015-4.647
							c-0.198-0.179-0.314-0.425-0.327-0.692c-0.013-0.267,0.079-0.523,0.258-0.721c0.192-0.211,0.455-0.328,0.742-0.328
							c0.248,0,0.486,0.092,0.67,0.259c2.92,2.649,6.706,4.108,10.662,4.108c0.432,0,0.87-0.018,1.302-0.053
							c0.482-0.039,0.916-0.308,1.165-0.722c1.95-3.242,2.98-6.953,2.98-10.731c0-5.405-2.063-10.533-5.81-14.44
							c-0.255-0.266-0.343-0.649-0.23-1c0.673-2.081,1.014-4.245,1.014-6.432c0-8.382-4.988-15.919-12.707-19.2
							c-0.189-0.08-0.389-0.12-0.587-0.12c-0.352,0-0.7,0.124-0.977,0.362c-3.75,3.218-5.768,7.892-5.534,12.824
							c0.157,3.32,1.392,6.583,3.479,9.189c0.281,0.35,0.703,0.557,1.152,0.562c3.013,0.038,5.834,1.07,8.159,2.984
							c0.426,0.351,0.487,0.982,0.136,1.407c-0.191,0.231-0.473,0.364-0.774,0.364c-0.163,0-0.406-0.04-0.634-0.227
							c-2.014-1.659-4.452-2.536-7.052-2.536c-0.359,0-0.723,0.017-1.083,0.052c-2.955,0.285-5.621,1.704-7.508,3.995
							c-0.191,0.231-0.472,0.364-0.773,0.364c-0.163,0-0.406-0.04-0.635-0.228c-0.426-0.351-0.487-0.982-0.136-1.408
							c1.442-1.75,3.327-3.102,5.452-3.907c0.415-0.157,0.739-0.491,0.885-0.91c0.146-0.419,0.098-0.882-0.129-1.262
							c-1.523-2.546-2.4-5.432-2.537-8.345c-0.264-5.565,2.016-10.834,6.256-14.456c0.449-0.384,0.631-0.995,0.465-1.562
							c-2.548-8.708-10.67-14.874-19.751-14.996c-0.007,0-0.014,0-0.021,0c-0.739,0-1.369,0.539-1.482,1.271
							c-0.298,1.933-0.894,3.775-1.77,5.474c-0.009,0.016-0.017,0.033-0.025,0.05c-2.52,5.37-0.394,11.751,4.84,14.529
							c0.236,0.125,0.409,0.335,0.487,0.59c0.078,0.255,0.052,0.526-0.073,0.762c-0.174,0.328-0.513,0.532-0.885,0.532
							c-0.164,0-0.32-0.039-0.467-0.117c-3.562-1.89-6.019-5.27-6.741-9.271c-0.092-0.51-0.441-0.937-0.923-1.128
							c-0.179-0.071-0.367-0.106-0.553-0.106c-0.316,0-0.629,0.1-0.891,0.294c-1.117,0.825-2.313,1.517-3.555,2.057
							c-0.126,0.055-0.26,0.083-0.397,0.083c-0.399,0-0.759-0.236-0.918-0.602c-0.22-0.506,0.013-1.096,0.519-1.316
							c3.405-1.479,6.195-4.099,7.864-7.391c0.036-0.074,0.07-0.148,0.103-0.222c0.017-0.038,0.032-0.076,0.051-0.113
							c0.007-0.012,0.013-0.024,0.019-0.036c0.008-0.015,0.015-0.031,0.023-0.046c0.819-1.744,1.31-3.615,1.461-5.56
							c0.018-0.237-0.02-0.476-0.112-0.695c-2.594-6.196-8.607-10.199-15.319-10.199c-8.148,0-15.213,6.065-16.432,14.108
							c0,0.002-0.012,0.063-0.012,0.065c-0.118,0.544-0.177,1.089-0.177,1.618v16.811c0,0.451,0.203,0.877,0.552,1.162
							c0.27,0.22,0.606,0.338,0.948,0.338c0.1,0,0.201-0.01,0.301-0.031c0.441-0.09,0.836-0.159,1.209-0.209
							c0.812-0.11,1.635-0.166,2.447-0.166c3.924,0,7.662,1.267,10.81,3.664c3.807,2.898,6.258,7.105,6.901,11.848
							c0.074,0.546-0.31,1.051-0.852,1.124c-0.048,0.006-0.095,0.01-0.142,0.01c-0.496,0-0.921-0.373-0.988-0.866
							c-0.57-4.212-2.747-7.95-6.13-10.525c-2.797-2.129-6.119-3.255-9.607-3.255c-0.721,0-1.451,0.05-2.169,0.147
							c-0.633,0.086-1.267,0.21-1.883,0.37c-0.048,0.006-0.096,0.012-0.145,0.021c-0.723,0.121-1.252,0.747-1.252,1.479v1.338
							c0,0.552-0.449,1-1,1s-1-0.448-1-1v-23.26c0-0.653,0.07-1.318,0.209-1.977c0.005-0.026,0.01-0.052,0.014-0.078
							c1.396-8.971,9.306-15.736,18.399-15.736c7.132,0,13.52,3.954,16.67,10.32c0.253,0.512,0.775,0.835,1.344,0.835
							c0.011,0,0.022,0,0.033,0c0.148-0.003,0.295-0.005,0.44-0.005c10.328,0,19.412,6.961,22.09,16.928
							c0.121,0.451,0.445,0.819,0.876,0.997c8.591,3.545,14.142,11.843,14.142,21.141c0,1.932-0.245,3.857-0.727,5.723
							c-0.122,0.473-0.006,0.976,0.31,1.348c3.509,4.122,5.442,9.378,5.442,14.802c0,4.058-1.077,8.044-3.115,11.527
							c-0.274,0.468-0.274,1.047,0,1.515c2.038,3.483,3.115,7.469,3.115,11.528c0,6.17-2.551,12.169-6.999,16.46
							c-0.345,0.333-0.511,0.812-0.444,1.287c0.141,1.007,0.212,2.024,0.212,3.021c0,10.36-7.679,19.567-17.862,21.418
							c-0.235,0.043-0.457,0.141-0.647,0.287l-0.218,0.167c-0.191,0.146-0.344,0.335-0.446,0.552
							c-2.86,6.053-9.034,9.965-15.731,9.965c-0.654,0-1.316-0.038-1.967-0.112c-0.057-0.006-0.113-0.01-0.17-0.01
							c-0.447,0-0.874,0.2-1.161,0.551c-3.64,4.452-9.018,7.005-14.757,7.005c-9.26,0-19.055-8.755-19.055-17.032v-26.129
							c0-0.552,0.449-1,1-1c0.315,0,0.607,0.151,0.801,0.413c0.199,0.27,0.483,0.466,0.806,0.556
							c1.395,0.388,2.833,0.584,4.274,0.584c4.058,0,7.927-1.539,10.894-4.332c2.73-2.569,4.469-6.032,4.899-9.753
							c0.058-0.505,0.481-0.885,0.984-0.885c0.04,0,0.081,0.002,0.124,0.008c0.547,0.063,0.941,0.56,0.878,1.108
							c-0.483,4.187-2.441,8.086-5.514,10.979c-3.342,3.147-7.697,4.88-12.264,4.88c-1.018,0-2.068-0.094-3.121-0.281
							c-0.087-0.015-0.174-0.023-0.261-0.023c-0.35,0-0.692,0.122-0.964,0.351c-0.34,0.285-0.536,0.706-0.536,1.149v22.376
							C140.375,196.898,149.141,204.625,157.43,204.625z"/>
					</g>
				</g>
			</g>
		</g>
		<g>
			<g>
				<g>
					<path class="st2" d="M98.329,125.141v5.719c0,2.289,1.548,4.288,3.766,4.862l4.478,1.154l-2.352,3.984
						c-1.161,1.973-0.842,4.481,0.776,6.099l4.044,4.044c1.619,1.618,4.128,1.938,6.102,0.775l3.981-2.35l1.154,4.479
						c0.573,2.216,2.573,3.764,4.862,3.764h5.719c2.287,0,4.287-1.547,4.863-3.767l1.153-4.477l3.982,2.351
						c1.974,1.162,4.48,0.844,6.101-0.776l4.044-4.044c1.618-1.618,1.938-4.126,0.775-6.101l-2.351-3.981l4.48-1.155
						c2.216-0.574,3.763-2.573,3.763-4.861v-5.719c0-2.289-1.547-4.288-3.766-4.863l-4.478-1.154l2.352-3.984
						c1.161-1.972,0.842-4.48-0.776-6.099l-4.044-4.044c-1.62-1.619-4.128-1.938-6.102-0.775l-3.981,2.35l-1.154-4.481
						c-0.575-2.215-2.575-3.762-4.862-3.762h-5.719c-2.289,0-4.289,1.548-4.862,3.764c-0.001,0.001-0.001,0.002-0.001,0.003
						l-1.153,4.477l-3.983-2.351c-1.973-1.161-4.481-0.841-6.1,0.777l-4.045,4.044c-1.617,1.618-1.937,4.126-0.774,6.101
						l2.351,3.981l-4.479,1.154C99.877,120.852,98.329,122.851,98.329,125.141z M103.343,125.12l7.695-1.983
						c0.761-0.196,1.385-0.738,1.686-1.464c0.301-0.726,0.243-1.551-0.156-2.227l-4.035-6.869l4.069-4.049l6.844,4.039
						c0.676,0.399,1.501,0.457,2.228,0.157c0.726-0.301,1.268-0.925,1.464-1.686l1.982-7.695l-2.421-0.624l2.442,0.61l5.74,0.014
						l1.982,7.695c0.196,0.761,0.738,1.385,1.464,1.686c0.727,0.301,1.553,0.243,2.228-0.157l6.869-4.034l4.048,4.069l-4.039,6.844
						c-0.399,0.676-0.457,1.501-0.156,2.227c0.301,0.726,0.925,1.269,1.686,1.464l7.709,2.004l-0.014,5.74l-7.695,1.983
						c-0.761,0.196-1.385,0.738-1.686,1.464c-0.301,0.726-0.243,1.551,0.156,2.227l4.035,6.869l-4.069,4.049l-6.844-4.039
						c-0.676-0.4-1.502-0.458-2.228-0.157c-0.726,0.301-1.268,0.925-1.464,1.686l-2.004,7.709l-5.74-0.014l-1.982-7.695
						c-0.196-0.761-0.738-1.385-1.464-1.686c-0.308-0.127-0.633-0.19-0.957-0.19c-0.441,0-0.881,0.117-1.271,0.347l-6.869,4.034
						l-4.048-4.069l4.039-6.844c0.399-0.676,0.457-1.501,0.156-2.227c-0.301-0.726-0.925-1.269-1.686-1.464l-7.709-2.003
						L103.343,125.12z"/>
				</g>
			</g>
		</g>
		<g>
			<g>
				<g>
					<path class="st3" d="M102.952,132.312l7.712,2.004c0.302,0.078,0.554,0.297,0.674,0.586c0.12,0.289,0.096,0.621-0.062,0.89
						l-4.039,6.844c-0.347,0.588-0.253,1.336,0.228,1.82l4.048,4.069c0.289,0.291,0.674,0.442,1.064,0.442
						c0.26,0,0.523-0.068,0.759-0.207l6.873-4.037c0.153-0.09,0.328-0.138,0.507-0.138c0.132,0,0.261,0.026,0.383,0.076
						c0.289,0.12,0.508,0.372,0.586,0.675l1.982,7.695c0.17,0.661,0.766,1.124,1.449,1.126l5.74,0.014c0.001,0,0.002,0,0.004,0
						c0.683,0,1.28-0.461,1.452-1.123l2.005-7.712c0.078-0.303,0.297-0.555,0.587-0.676c0.122-0.05,0.25-0.076,0.382-0.076
						c0.179,0,0.354,0.048,0.508,0.139l6.844,4.039c0.237,0.14,0.5,0.208,0.762,0.208c0.387,0,0.77-0.149,1.058-0.437l4.069-4.049
						c0.485-0.483,0.582-1.233,0.235-1.823l-4.037-6.872c-0.159-0.268-0.182-0.601-0.062-0.89s0.372-0.508,0.674-0.586l7.695-1.983
						c0.661-0.17,1.124-0.766,1.126-1.449l0.014-5.74c0.002-0.685-0.46-1.283-1.123-1.455l-7.712-2.005
						c-0.302-0.078-0.554-0.297-0.674-0.586c-0.12-0.289-0.096-0.621,0.062-0.89l4.039-6.844c0.347-0.588,0.253-1.336-0.228-1.82
						l-4.048-4.069c-0.289-0.291-0.674-0.442-1.064-0.442c-0.26,0-0.523,0.068-0.759,0.207l-6.874,4.037
						c-0.152,0.09-0.327,0.138-0.505,0.138c-0.132,0-0.261-0.026-0.383-0.076c-0.289-0.12-0.508-0.372-0.586-0.675l-1.982-7.695
						c-0.171-0.663-0.768-1.126-1.453-1.126h-5.762c-0.684,0-1.282,0.463-1.453,1.126l-1.982,7.695
						c-0.078,0.303-0.297,0.555-0.584,0.674c-0.123,0.051-0.253,0.077-0.386,0.077c-0.179,0-0.354-0.048-0.507-0.138l-6.844-4.039
						c-0.237-0.14-0.5-0.208-0.762-0.208c-0.387,0-0.77,0.149-1.058,0.437l-4.069,4.049c-0.485,0.483-0.582,1.233-0.235,1.823
						l4.037,6.872c0.159,0.268,0.182,0.601,0.062,0.89c-0.12,0.289-0.372,0.508-0.674,0.586l-7.695,1.983
						c-0.661,0.17-1.124,0.766-1.126,1.449l-0.014,5.74C101.827,131.541,102.289,132.139,102.952,132.312z M103.343,125.12
						l7.695-1.983c0.761-0.196,1.385-0.738,1.686-1.464c0.301-0.726,0.243-1.551-0.156-2.227l-4.035-6.869l4.069-4.049l6.844,4.039
						c0.389,0.23,0.829,0.347,1.27,0.347c0.324,0,0.65-0.063,0.958-0.19c0.726-0.301,1.268-0.925,1.464-1.686l1.982-7.695h5.762
						l1.982,7.695c0.196,0.761,0.738,1.385,1.464,1.686c0.308,0.128,0.633,0.191,0.958,0.191c0.442,0,0.881-0.117,1.27-0.347
						l6.869-4.034l4.048,4.069l-4.039,6.844c-0.399,0.676-0.457,1.501-0.156,2.227c0.301,0.726,0.925,1.269,1.686,1.464l7.709,2.004
						l-0.014,5.74l-7.695,1.983c-0.761,0.196-1.385,0.738-1.686,1.464c-0.301,0.726-0.243,1.551,0.156,2.227l4.035,6.869
						l-4.069,4.049l-6.844-4.039c-0.39-0.23-0.829-0.347-1.271-0.347c-0.324,0-0.65,0.063-0.957,0.191
						c-0.726,0.301-1.268,0.925-1.464,1.686l-2.004,7.709l-5.74-0.014l-1.982-7.695c-0.196-0.761-0.738-1.385-1.464-1.686
						c-0.308-0.127-0.633-0.19-0.957-0.19c-0.441,0-0.881,0.117-1.271,0.347l-6.869,4.034l-4.048-4.069l4.039-6.844
						c0.399-0.676,0.457-1.501,0.156-2.227c-0.301-0.726-0.925-1.269-1.686-1.464l-7.709-2.003L103.343,125.12z"/>
					<path class="st3" d="M98.329,125.141v5.719c0,2.289,1.548,4.288,3.766,4.862l4.478,1.154l-2.352,3.984
						c-1.161,1.973-0.842,4.481,0.776,6.099l4.044,4.044c0.968,0.967,2.254,1.47,3.553,1.47c0.874,0,1.754-0.228,2.548-0.696
						l3.981-2.35l1.154,4.479c0.573,2.216,2.573,3.764,4.862,3.764h5.719c2.287,0,4.287-1.547,4.863-3.767l1.153-4.477l3.982,2.351
						c0.794,0.467,1.674,0.695,2.548,0.695c1.299,0,2.584-0.503,3.552-1.471l4.044-4.044c1.618-1.618,1.938-4.126,0.775-6.101
						l-2.351-3.981l4.48-1.155c2.216-0.574,3.763-2.573,3.763-4.861v-5.719c0-2.289-1.547-4.288-3.766-4.863l-4.478-1.154
						l2.352-3.984c1.161-1.972,0.842-4.48-0.776-6.099l-4.044-4.044c-0.968-0.968-2.254-1.471-3.552-1.471
						c-0.875,0-1.755,0.228-2.549,0.696l-3.981,2.35l-1.154-4.481c-0.575-2.215-2.575-3.762-4.862-3.762h-5.719
						c-2.289,0-4.289,1.548-4.862,3.764c-0.001,0.001-0.001,0.002-0.001,0.003l-1.153,4.477l-3.983-2.351
						c-0.793-0.467-1.672-0.694-2.546-0.694c-1.3,0-2.586,0.503-3.554,1.471l-4.045,4.044c-1.617,1.618-1.937,4.126-0.774,6.101
						l2.351,3.981l-4.479,1.154C99.877,120.852,98.329,122.851,98.329,125.141z M106.947,120.577
						c0.456-0.118,0.831-0.443,1.012-0.879c0.18-0.436,0.146-0.931-0.094-1.337l-2.35-3.979c-0.815-1.385-0.592-3.145,0.542-4.279
						l4.045-4.044c0.666-0.665,1.551-1.032,2.493-1.032c0.627,0,1.244,0.168,1.783,0.486l3.983,2.351
						c0.234,0.138,0.498,0.208,0.763,0.208c0.194,0,0.39-0.038,0.574-0.114c0.436-0.18,0.761-0.555,0.879-1.011l1.148-4.455
						c0.002-0.008,0.004-0.015,0.006-0.023c0.402-1.554,1.804-2.639,3.41-2.639h5.719c1.605,0,3.007,1.085,3.41,2.636l1.154,4.481
						c0.118,0.457,0.443,0.831,0.878,1.012c0.184,0.076,0.38,0.114,0.574,0.114c0.265,0,0.528-0.07,0.762-0.208l3.98-2.349
						c0.542-0.32,1.16-0.488,1.788-0.488c0.941,0,1.826,0.366,2.492,1.031l4.044,4.044c1.135,1.135,1.359,2.894,0.545,4.276
						l-2.352,3.984c-0.24,0.406-0.275,0.901-0.094,1.336s0.555,0.761,1.012,0.879l4.476,1.153c1.555,0.403,2.642,1.805,2.642,3.411
						v5.719c0,1.605-1.085,3.007-2.637,3.409l-4.48,1.155c-0.456,0.118-0.831,0.443-1.011,0.879s-0.146,0.931,0.094,1.337
						l2.349,3.979c0.815,1.385,0.592,3.145-0.543,4.28l-4.044,4.044c-0.666,0.666-1.551,1.032-2.492,1.032
						c-0.627,0-1.245-0.169-1.786-0.487l-3.982-2.351c-0.234-0.138-0.498-0.208-0.763-0.208c-0.194,0-0.39,0.038-0.574,0.114
						c-0.435,0.18-0.761,0.555-0.878,1.011l-1.153,4.474c-0.404,1.557-1.807,2.644-3.411,2.644h-5.719
						c-1.606,0-3.008-1.085-3.41-2.638l-1.154-4.479c-0.118-0.457-0.443-0.831-0.878-1.011c-0.184-0.076-0.379-0.114-0.574-0.114
						c-0.265,0-0.528,0.07-0.762,0.208l-3.981,2.349c-0.542,0.319-1.159,0.488-1.787,0.488c-0.942,0-1.827-0.366-2.493-1.031
						l-4.044-4.045c-1.135-1.135-1.359-2.893-0.545-4.275l2.352-3.984c0.24-0.406,0.274-0.901,0.094-1.336
						c-0.18-0.436-0.555-0.761-1.012-0.879l-4.476-1.153c-1.555-0.403-2.642-1.805-2.642-3.41v-5.719
						c0-1.605,1.085-3.008,2.638-3.41L106.947,120.577z"/>
				</g>
			</g>
		</g>
		<g>
			<g>
				<g>
					<path class="st4" d="M139.75,128c0-6.479-5.271-11.75-11.75-11.75s-11.75,5.271-11.75,11.75s5.271,11.75,11.75,11.75
						S139.75,134.479,139.75,128z M121.25,128c0-3.722,3.028-6.75,6.75-6.75s6.75,3.028,6.75,6.75s-3.028,6.75-6.75,6.75
						S121.25,131.722,121.25,128z"/>
				</g>
			</g>
		</g>
		<g>
			<g>
				<g>
					<g>
						<path class="st5" d="M136.25,128c0-4.549-3.701-8.25-8.25-8.25s-8.25,3.701-8.25,8.25s3.701,8.25,8.25,8.25
							S136.25,132.549,136.25,128z M121.25,128c0-3.722,3.028-6.75,6.75-6.75s6.75,3.028,6.75,6.75s-3.028,6.75-6.75,6.75
							S121.25,131.722,121.25,128z"/>
						<path class="st5" d="M139.75,128c0-6.479-5.271-11.75-11.75-11.75s-11.75,5.271-11.75,11.75s5.271,11.75,11.75,11.75
							S139.75,134.479,139.75,128z M117.75,128c0-5.652,4.598-10.25,10.25-10.25s10.25,4.598,10.25,10.25s-4.598,10.25-10.25,10.25
							S117.75,133.652,117.75,128z"/>
					</g>
				</g>
			</g>
		</g>
	</g>
</g>
</svg>
